<?xml version="1.0" encoding="UTF-8"?>
<svg id="Layer_2" data-name="Layer 2" xmlns="http://www.w3.org/2000/svg" viewBox="0 0 1097.97 621.42">
  <defs>
    <style>
      .cls-1 {
        fill: none;
        stroke: #b6b6b7;
        stroke-miterlimit: 10;
      }

      .cls-2 {
        fill: #fff;
      }

      .cls-3 {
        fill: #005971;
      }

      .cls-4 {
        fill: #003049;
      }
    </style>
  </defs>
  <g id="Layer_1-2" data-name="Layer 1">
    <g>
      <g>
        <polyline class="cls-1" points="79.13 278.09 79.13 255.17 1016.49 255.17 1016.49 278.09"/>
        <line class="cls-1" x1="782.6" y1="255.17" x2="782.6" y2="278.09"/>
        <line class="cls-1" x1="550.93" y1="255.17" x2="550.93" y2="278.09"/>
        <line class="cls-1" x1="319.06" y1="255.17" x2="319.06" y2="278.09"/>
      </g>
      <g>
        <line class="cls-1" x1="660.92" y1="80.33" x2="635.67" y2="80.33"/>
        <line class="cls-1" x1="635.67" y1="80.33" x2="635.67" y2="201.14"/>
        <line class="cls-1" x1="635.67" y1="200.54" x2="660.92" y2="200.54"/>
        <line class="cls-1" x1="635.67" y1="138.87" x2="660.92" y2="138.87"/>
      </g>
      <g>
        <g>
          <rect class="cls-4" x="3.57" y="278.09" width="153.81" height="44.3" rx="2.56" ry="2.56"/>
          <g>
            <path class="cls-2" d="M43.41,301.92v-2.4c3.6-1.01,4.94-4.94,4.94-9.99l2.54.08c0,1.76-.16,3.39-.51,4.86l5.42,5.05-1.74,1.74-4.51-4.33c-1.17,2.67-3.18,4.46-6.14,4.99ZM65.67,307.55c0,3.36-4.67,4.51-10.12,4.51s-10.12-1.15-10.12-4.51,4.67-4.51,10.12-4.51,10.12,1.15,10.12,4.51ZM62.87,307.55c0-1.74-3.58-2.35-7.32-2.35s-7.32.61-7.32,2.35,3.58,2.35,7.32,2.35,7.32-.61,7.32-2.35ZM58.95,301.84h-2.51v-12.44h2.51v4.17h3.87v-4.3h2.51v13.32h-2.51v-6.59h-3.87v5.85Z"/>
            <path class="cls-2" d="M69.14,302.75v-2.48c4.33-.77,6.86-5.47,6.92-10.79l2.64.16c0,1.95-.32,3.82-.93,5.53l7.21,5.45-1.6,1.9-6.65-5.13c-1.66,2.88-4.27,4.94-7.58,5.37ZM73.33,309.37h17.01v2.4h-19.68v-7.26h2.67v4.86ZM92.93,294.44v2.54h-3.2v9.21h-2.64v-16.93h2.64v5.18h3.2Z"/>
            <path class="cls-2" d="M117.55,306.25h-10.04v6.35h-2.72v-6.35h-10.01v-2.46h22.78v2.46ZM115.94,301.36h-19.6v-11.69h2.62v3.2h14.36v-3.2h2.62v11.69ZM113.33,299.01v-3.79h-14.36v3.79h14.36Z"/>
          </g>
        </g>
        <rect class="cls-1" x=".5" y="342.01" width="161.96" height="41.89" rx="4.41" ry="4.41"/>
        <g>
          <path d="M43.6,362.72c-.85,0-1.61-.15-2.29-.44-.68-.29-1.22-.73-1.61-1.31-.39-.58-.59-1.28-.59-2.1v-.32c0-1.23.42-2.18,1.26-2.85.84-.67,1.92-1,3.23-1,.85,0,1.61.14,2.28.43.67.29,1.21.72,1.6,1.3s.59,1.29.59,2.12v.32c0,.82-.2,1.52-.59,2.1-.39.58-.93,1.02-1.61,1.31-.68.29-1.44.44-2.27.44ZM43.6,361.5c.93,0,1.69-.23,2.27-.7s.87-1.12.87-1.95v-.28c0-.85-.29-1.5-.87-1.96s-1.34-.69-2.27-.69-1.71.23-2.28.69-.86,1.12-.86,1.96v.28c0,.84.29,1.49.86,1.95s1.33.7,2.28.7ZM41.86,371.48v-7.22h1.33v6h8.41v-6h1.35v7.22h-11.09ZM42.59,367.76v-1.2h9.63v1.2h-9.63ZM47.27,359.31v-1.22h5.05v1.22h-5.05ZM51.61,363.24v-9.01h1.35v9.01h-1.35Z"/>
          <path d="M56.09,366.38v-1.22h16.15v1.22h-16.15ZM58.19,362.4v-7.25h11.98v7.25h-11.98ZM59.51,361.2h9.31v-4.84h-9.31v4.84ZM63.51,371.69v-6.28h1.33v6.28h-1.33Z"/>
          <path d="M74.06,368.17c1.05-1.08,1.91-2.14,2.59-3.17s1.2-2.12,1.57-3.29c.37-1.17.55-2.44.55-3.82v-1.51h1.33v1.51c0,2.13-.42,4.08-1.25,5.86-.84,1.78-2.11,3.56-3.81,5.34l-.97-.92ZM74.75,356.92v-1.22h9.4v1.22h-9.4ZM83.87,368.9l-5.55-6.51.95-.9,5.57,6.51-.97.9ZM87.05,371.48v-17.26h1.33v17.26h-1.33Z"/>
          <path d="M91.76,363.93l-.06-1.16h3.14c1.11,0,2.44-.05,3.99-.15s2.99-.23,4.31-.39l.13,1.12c-1.25.19-2.65.33-4.21.43-1.56.1-2.99.15-4.3.15h-3.01ZM97.2,361.13c-1.31,0-2.39-.27-3.23-.8-.85-.54-1.27-1.3-1.27-2.28v-.24c0-.98.42-1.75,1.27-2.29s1.93-.81,3.23-.81,2.39.27,3.23.81c.85.54,1.27,1.31,1.27,2.29v.24c0,.98-.42,1.75-1.27,2.28-.85.54-1.93.8-3.23.8ZM97.2,359.99c.96,0,1.74-.18,2.34-.53.6-.35.9-.84.9-1.45v-.17c0-.61-.3-1.09-.9-1.45-.6-.35-1.38-.53-2.34-.53s-1.74.18-2.33.53c-.59.36-.89.84-.89,1.45v.17c0,.61.3,1.09.89,1.45.59.36,1.37.53,2.33.53ZM94.85,371.48v-3.79h1.33v2.56h10.75v1.23h-12.08ZM96.06,366.87c.12-1.18.23-2.41.32-3.66h1.31c-.08,1.18-.18,2.44-.32,3.76l-1.31-.09ZM99.54,366.34v-1.1h5.81v1.1h-5.81ZM104.79,368.04v-13.82h1.33v13.82h-1.33Z"/>
          <path d="M110.29,363.41v-8.24h8.3v1.18h-6.97v5.87h1.81c1.06,0,2.22-.05,3.49-.16s2.44-.25,3.52-.42l.17,1.16c-1.05.19-2.23.34-3.56.45-1.33.11-2.61.17-3.84.17h-2.92ZM110.83,359.78v-1.16h7.57v1.16h-7.57ZM112.76,371.48v-6.32h11.09v6.32h-11.09ZM114.09,370.27h8.43v-3.91h-8.43v3.91ZM122.52,363.95v-9.72h1.33v9.72h-1.33Z"/>
        </g>
        <rect class="cls-1" x=".5" y="401.26" width="161.96" height="41.89" rx="4.41" ry="4.41"/>
        <g>
          <path d="M62.84,423.48c-.85,0-1.61-.17-2.29-.5-.68-.34-1.22-.84-1.61-1.51-.39-.67-.59-1.5-.59-2.49v-.39c0-.98.2-1.82.59-2.51.39-.69.93-1.2,1.61-1.53.68-.34,1.44-.5,2.29-.5s1.59.17,2.25.5c.67.34,1.2.85,1.59,1.53.39.69.59,1.52.59,2.51v.39c0,.98-.2,1.81-.59,2.49-.39.67-.92,1.18-1.59,1.51-.67.34-1.42.5-2.25.5ZM62.84,422.29c.92,0,1.67-.29,2.24-.86s.86-1.4.86-2.47v-.37c0-1.07-.29-1.9-.86-2.48-.57-.58-1.32-.87-2.24-.87s-1.69.29-2.27.87c-.58.58-.87,1.41-.87,2.48v.37c0,1.07.29,1.9.87,2.47.58.57,1.34.86,2.27.86ZM61.1,430.74v-5.51h1.35v4.28h10.56v1.23h-11.91ZM66.37,420.87v-1.12h5.18v1.12h-5.18ZM66.39,417.28v-1.16h5.18v1.16h-5.18ZM70.86,426.59v-13.11h1.35v13.11h-1.35Z"/>
          <path d="M75.33,424.03v-1.23h16.15v1.23h-16.15ZM87.01,423.33c.25-1.3.45-2.62.61-3.98.16-1.36.23-2.45.23-3.27v-1.01l.52.62h-11.2v-1.23h12v1.33c0,1.05-.08,2.26-.23,3.64-.16,1.38-.36,2.76-.63,4.14l-1.31-.22ZM82.75,430.94v-7.44h1.33v7.44h-1.33Z"/>
          <path d="M94.08,422.66v-8.24h8.3v1.18h-6.97v5.87h1.81c1.06,0,2.22-.05,3.49-.16s2.44-.25,3.52-.42l.17,1.16c-1.05.19-2.23.34-3.56.45-1.33.11-2.61.17-3.84.17h-2.92ZM94.62,419.03v-1.16h7.57v1.16h-7.57ZM96.55,430.74v-6.32h11.09v6.32h-11.09ZM97.88,429.52h8.43v-3.91h-8.43v3.91ZM106.31,423.2v-9.72h1.33v9.72h-1.33Z"/>
        </g>
        <rect class="cls-1" x=".5" y="460.52" width="161.96" height="41.89" rx="4.41" ry="4.41"/>
        <g>
          <path d="M34.45,482.96l-.06-1.22h2.97c1.07,0,2.37-.05,3.89-.15,1.52-.1,2.92-.23,4.21-.39l.15,1.18c-1.22.19-2.59.33-4.11.43-1.52.1-2.92.15-4.21.15h-2.84ZM42.1,479.71c.19-.91.33-1.83.43-2.76.1-.93.15-1.71.15-2.35v-.75l.54.62h-7.63v-1.18h8.41v.9c0,1.61-.21,3.51-.62,5.72l-1.29-.21ZM37.54,489.6v-4.52h1.33v3.29h10.56v1.23h-11.89ZM38.36,482.12v-4.84h1.35v4.84h-1.35ZM47.11,485.71v-13.37h1.33v13.37h-1.33ZM47.84,479.07v-1.25h3.29v1.25h-3.29Z"/>
          <path d="M53.41,487.09v-7.38h6.69v-4.77h-6.69v-1.22h8.04v7.2h-6.71v4.95h1.81c1.03,0,2.18-.05,3.45-.16,1.26-.11,2.45-.25,3.56-.42l.17,1.16c-1.02.2-2.19.36-3.52.47s-2.62.17-3.89.17h-2.92ZM65.64,489.6v-17.26h1.33v17.26h-1.33Z"/>
          <path d="M69.56,491.22l6.54-19.52h1.4l-6.54,19.52h-1.4Z"/>
          <path d="M78.74,479.78c1.55-.82,2.7-1.7,3.47-2.65.77-.94,1.15-2.02,1.15-3.24v-.95h1.33v.95c0,1.48-.44,2.79-1.31,3.92-.87,1.13-2.21,2.15-4,3.08l-.64-1.1ZM82.03,489.69v-4.47h9.76v-2.06h-9.85v-1.14h11.18v4.36h-9.76v2.13h10.47v1.18h-11.8ZM88.59,480.61l-5.46-3.46.77-1.03,5.37,3.4-.67,1.08ZM87.7,476.66v-1.22h4.79v1.22h-4.79ZM91.79,480.79v-8.45h1.33v8.45h-1.33Z"/>
          <path d="M97.19,486.76v-13.22h1.31v11.98h5.61v-11.98h1.33v13.22h-8.24ZM97.83,479.88v-1.22h6.97v1.22h-6.97ZM109.51,489.6v-17.26h1.33v17.26h-1.33Z"/>
          <path d="M115.01,481.52v-8.24h8.3v1.18h-6.97v5.87h1.81c1.06,0,2.22-.05,3.49-.16,1.27-.11,2.44-.25,3.52-.42l.17,1.16c-1.05.19-2.23.34-3.56.45-1.33.11-2.61.17-3.84.17h-2.92ZM115.55,477.89v-1.16h7.57v1.16h-7.57ZM117.48,489.6v-6.32h11.09v6.32h-11.09ZM118.81,488.38h8.43v-3.91h-8.43v3.91ZM127.24,482.06v-9.72h1.33v9.72h-1.33Z"/>
        </g>
        <path class="cls-1" d="M3.49,519.77h158.97v38.9c0,1.65-1.34,2.99-2.99,2.99H3.49c-1.65,0-2.99-1.34-2.99-2.99v-35.91c0-1.65,1.34-2.99,2.99-2.99Z"/>
        <g>
          <path d="M43.6,540.66c-1.31,0-2.38-.34-3.23-1.01s-1.26-1.64-1.26-2.9v-.35c0-1.26.42-2.23,1.26-2.91s1.92-1.02,3.23-1.02c.85,0,1.61.15,2.28.44.67.29,1.21.74,1.6,1.33s.59,1.31.59,2.16v.35c0,.85-.2,1.56-.59,2.15-.39.59-.93,1.03-1.6,1.32-.67.29-1.43.44-2.28.44ZM43.6,539.47c.93,0,1.69-.24,2.27-.72.58-.48.87-1.16.87-2.03v-.28c0-.87-.29-1.55-.87-2.03-.58-.48-1.34-.72-2.27-.72s-1.69.24-2.27.72c-.58.48-.87,1.16-.87,2.03v.28c0,.87.29,1.55.87,2.03.58.48,1.34.72,2.27.72ZM41.86,549.26v-6.67h11.09v6.67h-11.09ZM43.19,548.05h8.41v-4.26h-8.41v4.26ZM51.61,541.35v-9.35h1.35v9.35h-1.35Z"/>
          <path d="M55.77,540.21c1.55-.91,2.7-1.88,3.47-2.93.77-1.04,1.15-2.21,1.15-3.51v-1.16h1.31v1.16c0,1.55-.43,2.93-1.29,4.15-.86,1.22-2.18,2.34-3.96,3.37l-.67-1.08ZM62.62,549.43c-.81,0-1.52-.15-2.13-.45s-1.08-.71-1.4-1.23c-.32-.52-.49-1.12-.49-1.78s.16-1.24.49-1.77c.32-.53.79-.95,1.4-1.25.61-.31,1.32-.46,2.13-.46h3.5c.82,0,1.54.15,2.14.46.6.31,1.07.72,1.39,1.25.32.53.49,1.12.49,1.77s-.16,1.25-.49,1.78c-.32.52-.79.93-1.39,1.23s-1.32.45-2.14.45h-3.5ZM65.85,548.23c.96,0,1.69-.21,2.19-.63.5-.42.75-.97.75-1.65s-.25-1.2-.76-1.63-1.23-.64-2.18-.64h-2.97c-.95,0-1.67.21-2.18.64s-.76.97-.76,1.63.25,1.24.75,1.65c.5.42,1.23.63,2.19.63h2.97ZM65.57,540.94l-5.44-3.78.79-.99,5.38,3.7-.73,1.07ZM68.36,541.45v-9.42h1.35v9.42h-1.35ZM69.14,537.09v-1.22h3.42v1.22h-3.42Z"/>
          <path d="M73.82,542.51v-1.23h16.15v1.23h-16.15ZM80.7,539.24c-1.51,0-2.7-.31-3.57-.93-.87-.62-1.31-1.47-1.31-2.57s.44-1.95,1.31-2.57c.87-.62,2.06-.93,3.57-.93h2.39c1.52,0,2.72.31,3.59.92.87.61,1.31,1.47,1.31,2.58s-.44,1.97-1.31,2.58c-.87.61-2.07.92-3.59.92h-2.39ZM75.98,549.26v-5.01h1.35v3.78h10.84v1.23h-12.19ZM82.88,538.06c1.18,0,2.11-.21,2.77-.63.66-.42.99-.98.99-1.69s-.33-1.29-.98-1.7c-.65-.41-1.58-.62-2.78-.62h-1.96c-1.2,0-2.12.21-2.79.62-.66.41-.99.98-.99,1.7s.33,1.29.99,1.7c.66.41,1.59.62,2.79.62h1.96ZM81.24,545.93v-4.13h1.33v4.13h-1.33Z"/>
          <path d="M96.75,540.76c-.85,0-1.61-.15-2.28-.45-.67-.3-1.21-.74-1.6-1.34-.39-.59-.59-1.32-.59-2.18v-.34c0-.86.2-1.59.59-2.18.39-.59.93-1.04,1.6-1.34.67-.3,1.43-.45,2.28-.45s1.59.15,2.26.45c.67.3,1.21.74,1.6,1.34.39.59.59,1.32.59,2.18v.34c0,.86-.2,1.59-.59,2.18-.39.59-.93,1.04-1.6,1.34-.67.3-1.43.45-2.26.45ZM96.75,539.56c.92,0,1.67-.24,2.24-.73.57-.49.86-1.18.86-2.08v-.28c0-.88-.29-1.57-.86-2.06-.57-.49-1.32-.73-2.24-.73s-1.69.24-2.26.73c-.57.49-.86,1.17-.86,2.06v.28c0,.9.29,1.59.86,2.08s1.33.73,2.26.73ZM98.7,549.43c-.82,0-1.54-.15-2.14-.45s-1.07-.71-1.39-1.23c-.32-.52-.49-1.12-.49-1.78s.16-1.24.49-1.77c.32-.53.79-.95,1.39-1.25.6-.31,1.32-.46,2.14-.46h3.65c.82,0,1.54.15,2.14.46.6.31,1.07.72,1.39,1.25.32.53.49,1.12.49,1.77s-.16,1.25-.49,1.78c-.32.52-.79.93-1.39,1.23s-1.32.45-2.14.45h-3.65ZM102.06,548.23c.96,0,1.69-.21,2.21-.63.51-.42.77-.97.77-1.65s-.26-1.2-.77-1.63c-.51-.42-1.25-.64-2.21-.64h-3.08c-.96,0-1.7.21-2.21.64-.51.42-.77.97-.77,1.63s.26,1.24.77,1.65c.51.42,1.25.63,2.21.63h3.08ZM100.31,535.45v-1.16h5.18v1.16h-5.18ZM100.31,538.68v-1.12h5.18v1.12h-5.18ZM104.79,541.45v-9.42h1.33v9.42h-1.33Z"/>
          <path d="M110.29,541.19v-8.24h8.3v1.18h-6.97v5.87h1.81c1.06,0,2.22-.05,3.49-.16s2.44-.25,3.52-.42l.17,1.16c-1.05.19-2.23.34-3.56.45-1.33.11-2.61.17-3.84.17h-2.92ZM110.83,537.56v-1.16h7.57v1.16h-7.57ZM112.76,549.26v-6.32h11.09v6.32h-11.09ZM114.09,548.05h8.43v-3.91h-8.43v3.91ZM122.52,541.73v-9.72h1.33v9.72h-1.33Z"/>
        </g>
        <path class="cls-1" d="M4.09,579.02h154.78c1.98,0,3.59,1.61,3.59,3.59v38.3H4.09c-1.98,0-3.59-1.61-3.59-3.59v-34.71c0-1.98,1.61-3.59,3.59-3.59Z"/>
        <g>
          <path d="M14.7,600.94v-1.2h16.15v1.2H14.7ZM16.7,592.81v-1.16h12.17v1.16h-12.17ZM16.7,598.01v-1.16h12.17v1.16h-12.17ZM16.79,608.48v-5.51h11.98v5.51h-11.98ZM18.12,607.34h9.31v-3.23h-9.31v3.23ZM19.37,597.34v-5.22h1.31v5.22h-1.31ZM22.1,603.71v-3.31h1.33v3.31h-1.33ZM24.87,597.34v-5.22h1.31v5.22h-1.31Z"/>
          <path d="M32.69,598.85c1.58-.82,2.76-1.67,3.54-2.53.78-.87,1.17-1.85,1.17-2.94v-.75h1.33v.75c0,1.36-.45,2.56-1.34,3.62-.89,1.05-2.27,2.04-4.12,2.96l-.58-1.1ZM33.36,593.26v-1.2h9.42v1.2h-9.42ZM35.92,608.57v-4.47h9.76v-2.06h-9.85v-1.14h11.18v4.36h-9.76v2.13h10.47v1.18h-11.8ZM42.84,599.58l-5.72-3.46.67-1.01,5.67,3.35-.62,1.12ZM45.68,599.67v-8.45h1.33v8.45h-1.33Z"/>
          <path d="M50.15,607.09v-1.23h16.15v1.23h-16.15ZM52.24,601.71v-9.31h1.33v8.09h9.31v-8.09h1.35v9.31h-11.98ZM52.99,597.11v-1.23h10.49v1.23h-10.49ZM57.57,606.81v-5.8h1.33v5.8h-1.33Z"/>
          <path d="M67.87,600.59v-1.2h16.15v1.2h-16.15ZM69.33,597.13c1.99-.54,3.51-1.17,4.53-1.89,1.03-.72,1.54-1.51,1.54-2.38v-.82h1.31v.8c0,1.21-.57,2.26-1.71,3.14-1.14.88-2.91,1.65-5.3,2.28l-.37-1.14ZM74.06,608.66c-.91,0-1.69-.13-2.33-.39-.64-.26-1.13-.62-1.46-1.08s-.5-1-.5-1.61.16-1.13.5-1.59c.33-.46.82-.82,1.46-1.08.64-.26,1.42-.39,2.33-.39h3.78c.92,0,1.7.13,2.35.39.64.26,1.13.62,1.46,1.08.33.46.5.99.5,1.59s-.17,1.15-.5,1.61-.82.82-1.46,1.08c-.64.26-1.42.39-2.35.39h-3.78ZM70.23,592.83v-1.18h11.46v1.18h-11.46ZM77.54,607.49c1.07,0,1.88-.17,2.43-.51s.82-.81.82-1.39-.27-1.04-.82-1.37c-.55-.33-1.36-.5-2.43-.5h-3.18c-1.07,0-1.88.17-2.43.5-.55.33-.82.79-.82,1.37s.27,1.05.82,1.39,1.36.51,2.43.51h3.18ZM82.06,598.27l-7.12-2.94.58-1.08,7.03,2.9-.49,1.12Z"/>
          <path d="M86.62,600.4v-8.24h8.3v1.18h-6.97v5.87h1.81c1.06,0,2.22-.05,3.49-.16s2.44-.25,3.52-.42l.17,1.16c-1.05.19-2.23.34-3.56.45-1.33.11-2.61.17-3.84.17h-2.92ZM87.16,596.77v-1.16h7.57v1.16h-7.57ZM89.09,608.48v-6.32h11.09v6.32h-11.09ZM90.42,607.26h8.43v-3.91h-8.43v3.91ZM98.85,600.94v-9.72h1.33v9.72h-1.33Z"/>
          <path d="M108.83,599.97c0-1.91.34-3.69,1.02-5.34.68-1.65,1.68-3.19,3-4.61l.92.82c-2.42,2.71-3.63,5.75-3.63,9.12s1.21,6.42,3.63,9.12l-.92.82c-1.32-1.42-2.32-2.96-3-4.61-.68-1.65-1.02-3.43-1.02-5.34Z"/>
          <path d="M121.54,607.77c-1.16,0-2.21-.26-3.16-.77-.95-.51-1.7-1.25-2.25-2.22-.56-.97-.83-2.1-.83-3.41v-2.8c0-1.31.28-2.45.83-3.41.55-.97,1.3-1.7,2.25-2.22s2-.77,3.16-.77,2.21.26,3.16.77c.95.51,1.7,1.25,2.25,2.22.55.97.83,2.1.83,3.41v2.8c0,1.31-.28,2.45-.83,3.41-.56.97-1.31,1.7-2.25,2.22-.95.51-2,.77-3.16.77ZM121.54,606.51c.92,0,1.75-.2,2.5-.61.74-.4,1.33-1,1.76-1.79.43-.79.65-1.75.65-2.89v-2.51c0-1.13-.21-2.1-.65-2.89-.43-.79-1.02-1.39-1.76-1.8-.74-.4-1.57-.61-2.5-.61s-1.75.2-2.49.61c-.74.41-1.32,1-1.75,1.8-.43.79-.64,1.75-.64,2.89v2.51c0,1.13.21,2.1.64,2.89.43.79,1.01,1.39,1.75,1.79.73.41,1.56.61,2.49.61ZM121.81,602.83l.86-.86,5.68,5.68-.84.86-5.7-5.68Z"/>
          <path d="M129.16,607.49l5.78-15.03h1.36l-5.72,15.03h-1.42ZM132.05,602.51v-1.23h7.48v1.23h-7.48ZM140.93,607.49l-5.74-15.03h1.38l5.76,15.03h-1.4Z"/>
          <path d="M148.26,599.97c0,1.91-.34,3.69-1.02,5.34-.68,1.65-1.68,3.19-3,4.61l-.92-.82c2.42-2.7,3.63-5.75,3.63-9.12s-1.21-6.42-3.63-9.12l.92-.82c1.32,1.42,2.32,2.96,3,4.61.68,1.65,1.02,3.43,1.02,5.34Z"/>
        </g>
      </g>
      <g>
        <g>
          <rect class="cls-4" x="237.93" y="278.09" width="153.81" height="44.3" rx="2.56" ry="2.56"/>
          <g>
            <path class="cls-2" d="M278.02,289.4h9.53v6.14c0,8.81-3.95,14.36-9.53,14.42v-2.48c4.25-.13,6.97-4.75,6.97-11.8v-3.87h-6.97v-2.4ZM299.44,288.57v22.8h-2.54v-11.13h-3.9v10.73h-2.54v-22.27h2.54v9.05h3.9v-9.18h2.54Z"/>
            <path class="cls-2" d="M317.32,299.17h-13.32v-10.2h2.59v2.83h8.14v-2.83h2.59v10.2ZM307.42,309.02h16.98v2.06h-19.6v-5.9h16.42v-1.87h-16.47v-2.06h19.09v5.87h-16.42v1.9ZM314.73,297.04v-3.12h-8.14v3.12h8.14ZM327.04,292.66v2.43h-3.2v4.91h-2.64v-11.43h2.64v4.09h3.2Z"/>
            <path class="cls-2" d="M351.66,305.55h-10.04v6.35h-2.72v-6.35h-10.01v-2.46h22.78v2.46ZM350.05,300.67h-19.6v-11.69h2.62v3.2h14.36v-3.2h2.62v11.69ZM347.44,298.32v-3.79h-14.36v3.79h14.36Z"/>
          </g>
        </g>
        <rect class="cls-1" x="234.16" y="342.17" width="161.96" height="41.89" rx="4.41" ry="4.41"/>
        <g>
          <path d="M272.31,368.44c1.23-1.62,2.15-3.23,2.76-4.82s.91-3.39.91-5.38v-1.68h1.27v1.68c0,2.07-.32,3.98-.96,5.74s-1.62,3.52-2.94,5.29l-1.03-.82ZM272.91,357.09v-1.22h7.46v1.22h-7.46ZM279.9,369.06l-4.32-6.47,1.03-.82,4.36,6.52-1.07.77ZM279.21,362.19v-1.22h3.55v1.22h-3.55ZM282.26,371.34v-16.66h1.29v16.66h-1.29ZM285.98,371.65v-17.26h1.31v17.26h-1.31Z"/>
          <path d="M290.22,370.27v-1.23h16.15v1.23h-16.15ZM291.36,364.04c2.14-1,3.74-2.04,4.79-3.13s1.57-2.27,1.57-3.52v-1.29h1.35v1.29c0,1.52-.58,2.93-1.73,4.22-1.15,1.29-2.94,2.48-5.38,3.58l-.6-1.14ZM292.32,356.88v-1.22h11.98v1.22h-11.98ZM304.51,365.19l-7.09-4.73.6-1.14,7.2,4.79-.71,1.08ZM297.64,369.99v-5.2h1.33v5.2h-1.33Z"/>
          <path d="M307.94,363.32v-1.2h16.15v1.2h-16.15ZM314.17,371.84c-.91,0-1.69-.14-2.35-.42-.66-.28-1.15-.67-1.48-1.16-.33-.49-.5-1.05-.5-1.67s.17-1.18.5-1.67c.33-.49.82-.88,1.48-1.16.65-.28,1.44-.42,2.35-.42h3.7c.92,0,1.71.14,2.36.42s1.15.67,1.48,1.16c.33.49.5,1.05.5,1.67s-.17,1.18-.5,1.67c-.33.49-.82.88-1.48,1.16s-1.44.42-2.36.42h-3.7ZM319.87,360.81c.17-.85.31-1.7.41-2.57.1-.87.15-1.54.15-2.03v-.6l.5.62h-10.82v-1.22h11.65v.9c0,.7-.05,1.5-.16,2.39-.11.9-.25,1.79-.44,2.69l-1.29-.19ZM317.55,370.66c1.08,0,1.91-.19,2.47-.56.56-.37.84-.89.84-1.53s-.28-1.12-.85-1.5c-.57-.37-1.39-.56-2.46-.56h-3.07c-1.07,0-1.89.19-2.46.56-.57.37-.85.87-.85,1.5s.28,1.16.84,1.53c.56.37,1.38.56,2.47.56h3.07ZM314.73,362.68v-4.13h1.33v4.13h-1.33Z"/>
          <path d="M325.91,362.87c1.56-.92,2.72-1.86,3.48-2.81s1.14-2.04,1.14-3.26v-.88h1.31v.88c0,1.46-.43,2.76-1.29,3.9-.86,1.14-2.19,2.22-3.98,3.24l-.65-1.07ZM326.6,356.53v-1.2h9.2v1.2h-9.2ZM332.83,371.82c-.82,0-1.54-.15-2.15-.45s-1.08-.71-1.4-1.23c-.32-.52-.49-1.12-.49-1.78s.16-1.24.49-1.77c.32-.53.79-.95,1.4-1.25.61-.31,1.33-.46,2.15-.46h3.63c.82,0,1.54.15,2.15.46.61.31,1.08.72,1.4,1.25.32.53.49,1.12.49,1.77s-.16,1.25-.49,1.78c-.32.52-.79.93-1.4,1.23s-1.33.45-2.15.45h-3.63ZM336.19,370.63c.96,0,1.69-.21,2.2-.63s.76-.97.76-1.65-.25-1.2-.76-1.63-1.24-.64-2.2-.64h-3.1c-.96,0-1.7.21-2.21.64-.51.42-.77.97-.77,1.63s.26,1.24.77,1.65c.51.42,1.25.63,2.21.63h3.1ZM335.78,363.67l-5.55-3.87.73-.99,5.52,3.76-.69,1.1ZM335.18,359.52v-1.18h4.43v1.18h-4.43ZM338.9,363.84v-9.42h1.33v9.42h-1.33Z"/>
          <path d="M344.42,363.58v-8.24h8.3v1.18h-6.97v5.87h1.81c1.06,0,2.22-.05,3.49-.16s2.44-.25,3.52-.42l.17,1.16c-1.05.19-2.23.34-3.56.45-1.33.11-2.61.17-3.84.17h-2.92ZM344.96,359.95v-1.16h7.57v1.16h-7.57ZM346.89,371.65v-6.32h11.09v6.32h-11.09ZM348.21,370.44h8.43v-3.91h-8.43v3.91ZM356.65,364.12v-9.72h1.33v9.72h-1.33Z"/>
        </g>
        <rect class="cls-1" x="234.16" y="402.1" width="161.96" height="41.89" rx="4.41" ry="4.41"/>
        <g>
          <path d="M268.19,422.17v-1.14h16.15v1.14h-16.15ZM270.28,431.27v-4.26h10.64v-1.93h-10.73v-1.14h12.08v4.19h-10.66v2h11.12v1.14h-12.45ZM270.45,419.51v-5.25h11.65v5.25h-11.65ZM271.78,418.39h8.97v-3.01h-8.97v3.01ZM275.61,424.6v-3.16h1.33v3.16h-1.33Z"/>
          <path d="M285.91,426.43v-1.2h16.15v1.2h-16.15ZM288.01,423.07v-4.69h10.64v-2.36h-10.73v-1.18h12.08v4.67h-10.66v2.41h11.03v1.14h-12.36ZM290.25,431.39v-5.83h1.35v5.83h-1.35ZM296.4,431.39v-5.83h1.35v5.83h-1.35Z"/>
          <path d="M303.09,432.81l6.54-19.52h1.4l-6.54,19.52h-1.4Z"/>
          <path d="M311.79,427.89c1.01-1.08,1.84-2.14,2.5-3.17.66-1.03,1.16-2.12,1.51-3.29.36-1.17.53-2.44.53-3.82v-1.53h1.31v1.53c0,2.13-.4,4.08-1.2,5.85-.8,1.77-2.03,3.55-3.68,5.33l-.97-.9ZM312.46,416.62v-1.22h9.09v1.22h-9.09ZM321.21,428.6l-5.33-6.51.99-.9,5.37,6.51-1.03.9ZM324.35,431.18v-17.26h1.33v17.26h-1.33ZM325.12,421.91v-1.23h3.42v1.23h-3.42Z"/>
          <path d="M329.58,427.95c1.25-1.62,2.17-3.23,2.78-4.81s.91-3.38.91-5.37v-1.68h1.29v1.68c0,2.07-.32,3.98-.96,5.74-.64,1.76-1.62,3.52-2.94,5.29l-1.07-.84ZM330.2,416.62v-1.22h7.46v1.22h-7.46ZM337.17,428.58l-4.3-6.47,1.05-.84,4.34,6.52-1.08.79ZM339.31,430.86v-16.66h1.29v16.66h-1.29ZM339.87,421.91v-1.23h3.96v1.23h-3.96ZM343.27,431.18v-17.26h1.31v17.26h-1.31Z"/>
          <path d="M348.54,423.1v-8.24h8.3v1.18h-6.97v5.87h1.81c1.06,0,2.22-.05,3.49-.16s2.44-.25,3.52-.42l.17,1.16c-1.05.19-2.23.34-3.56.45-1.33.11-2.61.17-3.84.17h-2.92ZM349.08,419.48v-1.16h7.57v1.16h-7.57ZM351.01,431.18v-6.32h11.09v6.32h-11.09ZM352.34,429.97h8.43v-3.91h-8.43v3.91ZM360.77,423.65v-9.72h1.33v9.72h-1.33Z"/>
        </g>
        <rect class="cls-1" x="234.16" y="462.03" width="161.96" height="41.89" rx="4.41" ry="4.41"/>
        <g>
          <path d="M254.6,482.53c1.25-.91,2.18-1.89,2.81-2.94.63-1.05.94-2.22.94-3.51v-1.2h1.33v1.2c0,1.51-.36,2.87-1.08,4.09-.72,1.22-1.81,2.35-3.25,3.38l-.75-1.03ZM262,491.69c-.84,0-1.56-.15-2.18-.45-.62-.3-1.09-.71-1.41-1.23-.32-.52-.49-1.12-.49-1.78s.16-1.24.49-1.77c.32-.53.79-.95,1.41-1.25.62-.31,1.34-.46,2.18-.46h3.76c.83,0,1.56.15,2.17.46.61.31,1.08.72,1.4,1.25.32.53.49,1.12.49,1.77s-.16,1.25-.49,1.78c-.32.52-.79.93-1.4,1.23s-1.33.45-2.17.45h-3.76ZM262.56,483.18l-4.3-3.76.82-.95,4.26,3.72-.79.99ZM265.48,490.49c.98,0,1.73-.21,2.23-.63s.76-.97.76-1.65-.26-1.2-.77-1.63-1.25-.64-2.22-.64h-3.22c-.97,0-1.71.21-2.22.64s-.77.97-.77,1.63.26,1.24.77,1.65,1.25.63,2.22.63h3.22ZM264.39,483.54v-9.09h1.27v9.09h-1.27ZM264.99,479.35v-1.2h3.81v1.2h-3.81ZM268.26,483.7v-9.42h1.31v9.42h-1.31Z"/>
          <path d="M272.17,483.57c1.55-1.05,2.7-2.16,3.47-3.33.77-1.17,1.15-2.48,1.15-3.93v-1.35h1.31v1.35c0,1.68-.43,3.19-1.28,4.53s-2.16,2.59-3.92,3.75l-.73-1.03ZM275.37,491.52v-5.25h1.33v4.02h10.38v1.23h-11.7ZM281.93,484.25l-5.44-4.26.84-.95,5.37,4.21-.77,1.01ZM284.75,487.37v-13.11h1.35v13.11h-1.35ZM285.54,480.08v-1.23h3.42v1.23h-3.42Z"/>
          <path d="M290.42,481.7c1.55-.82,2.7-1.7,3.47-2.65.77-.94,1.15-2.02,1.15-3.24v-.95h1.33v.95c0,1.48-.44,2.79-1.31,3.92-.87,1.13-2.21,2.15-4,3.08l-.64-1.1ZM293.71,491.61v-4.47h9.76v-2.06h-9.85v-1.14h11.18v4.36h-9.76v2.13h10.47v1.18h-11.8ZM300.27,482.53l-5.46-3.46.77-1.03,5.37,3.4-.67,1.08ZM299.37,478.58v-1.22h4.79v1.22h-4.79ZM303.47,482.71v-8.45h1.33v8.45h-1.33Z"/>
          <path d="M308.87,488.68v-13.22h1.31v11.98h5.61v-11.98h1.33v13.22h-8.24ZM309.51,481.8v-1.22h6.97v1.22h-6.97ZM321.19,491.52v-17.26h1.33v17.26h-1.33Z"/>
          <path d="M325.66,484.77v-1.23h16.15v1.23h-16.15ZM332.54,481.5c-1.51,0-2.7-.31-3.57-.93s-1.31-1.47-1.31-2.57.44-1.95,1.31-2.57,2.06-.93,3.57-.93h2.39c1.52,0,2.72.31,3.59.92.87.61,1.31,1.47,1.31,2.58s-.44,1.97-1.31,2.58c-.87.61-2.07.92-3.59.92h-2.39ZM327.83,491.52v-5.01h1.35v3.78h10.84v1.23h-12.19ZM334.73,480.32c1.18,0,2.11-.21,2.77-.63.66-.42.99-.98.99-1.69s-.33-1.29-.98-1.7-1.58-.62-2.78-.62h-1.96c-1.2,0-2.13.21-2.79.62s-.99.98-.99,1.7.33,1.29.99,1.7,1.59.62,2.79.62h1.96ZM333.08,488.19v-4.13h1.33v4.13h-1.33Z"/>
          <path d="M348.6,483.01c-.85,0-1.61-.15-2.28-.45-.67-.3-1.21-.74-1.6-1.34-.39-.59-.59-1.32-.59-2.18v-.34c0-.86.2-1.59.59-2.18.39-.59.93-1.04,1.6-1.34.67-.3,1.43-.45,2.28-.45s1.59.15,2.26.45c.67.3,1.21.74,1.6,1.34.39.59.59,1.32.59,2.18v.34c0,.86-.2,1.59-.59,2.18-.39.59-.93,1.04-1.6,1.34-.67.3-1.43.45-2.26.45ZM348.6,481.82c.92,0,1.67-.24,2.24-.73s.86-1.18.86-2.08v-.28c0-.88-.29-1.57-.86-2.06-.57-.49-1.32-.73-2.24-.73s-1.69.24-2.26.73c-.57.49-.86,1.17-.86,2.06v.28c0,.9.29,1.59.86,2.08.57.49,1.33.73,2.26.73ZM350.54,491.69c-.82,0-1.54-.15-2.14-.45s-1.07-.71-1.39-1.23-.49-1.12-.49-1.78.16-1.24.49-1.77c.32-.53.79-.95,1.39-1.25.6-.31,1.32-.46,2.14-.46h3.65c.82,0,1.54.15,2.14.46.6.31,1.07.72,1.39,1.25.32.53.49,1.12.49,1.77s-.16,1.25-.49,1.78-.79.93-1.39,1.23-1.32.45-2.14.45h-3.65ZM353.91,490.49c.96,0,1.69-.21,2.21-.63s.77-.97.77-1.65-.26-1.2-.77-1.63-1.25-.64-2.21-.64h-3.08c-.96,0-1.7.21-2.21.64s-.77.97-.77,1.63.25,1.24.77,1.65,1.25.63,2.21.63h3.08ZM352.15,477.7v-1.16h5.18v1.16h-5.18ZM352.15,480.94v-1.12h5.18v1.12h-5.18ZM356.64,483.7v-9.42h1.33v9.42h-1.33Z"/>
          <path d="M362.14,483.44v-8.24h8.3v1.18h-6.97v5.87h1.81c1.06,0,2.22-.05,3.49-.16,1.26-.11,2.44-.25,3.52-.42l.17,1.16c-1.05.19-2.23.34-3.56.45-1.33.11-2.61.17-3.84.17h-2.92ZM362.68,479.82v-1.16h7.57v1.16h-7.57ZM364.6,491.52v-6.32h11.09v6.32h-11.09ZM365.93,490.3h8.43v-3.91h-8.43v3.91ZM374.36,483.99v-9.72h1.33v9.72h-1.33Z"/>
        </g>
        <rect class="cls-1" x="234.16" y="521.96" width="161.96" height="41.89" rx="4.41" ry="4.41"/>
        <g>
          <path d="M272.4,543.95v-1.2h16.15v1.2h-16.15ZM274.41,535.82v-1.16h12.17v1.16h-12.17ZM274.41,541.02v-1.16h12.17v1.16h-12.17ZM274.5,551.49v-5.51h11.98v5.51h-11.98ZM275.83,550.35h9.31v-3.23h-9.31v3.23ZM277.08,540.34v-5.22h1.31v5.22h-1.31ZM279.81,546.72v-3.31h1.33v3.31h-1.33ZM282.57,540.34v-5.22h1.31v5.22h-1.31Z"/>
          <path d="M290.39,541.86c1.58-.82,2.76-1.67,3.54-2.53.78-.87,1.17-1.85,1.17-2.94v-.75h1.33v.75c0,1.36-.45,2.56-1.34,3.62-.89,1.05-2.27,2.04-4.12,2.96l-.58-1.1ZM291.06,536.27v-1.2h9.42v1.2h-9.42ZM293.62,551.58v-4.47h9.76v-2.06h-9.85v-1.14h11.18v4.36h-9.76v2.13h10.47v1.18h-11.8ZM300.54,542.59l-5.72-3.46.67-1.01,5.67,3.35-.62,1.12ZM303.38,542.68v-8.45h1.33v8.45h-1.33Z"/>
          <path d="M307.65,544.85l-.06-1.22h2.97c1.07,0,2.37-.05,3.89-.15,1.52-.1,2.92-.23,4.21-.39l.15,1.18c-1.22.19-2.59.33-4.11.43-1.52.1-2.92.15-4.21.15h-2.84ZM315.29,541.6c.19-.91.33-1.83.43-2.76.1-.93.15-1.71.15-2.35v-.75l.54.62h-7.63v-1.18h8.41v.9c0,1.61-.21,3.51-.62,5.72l-1.29-.21ZM310.73,551.49v-4.52h1.33v3.29h10.56v1.23h-11.89ZM311.55,544.01v-4.84h1.35v4.84h-1.35ZM320.3,547.6v-13.37h1.33v13.37h-1.33ZM321.03,540.96v-1.25h3.29v1.25h-3.29Z"/>
          <path d="M326.6,548.98v-7.38h6.69v-4.77h-6.69v-1.22h8.04v7.2h-6.71v4.95h1.81c1.03,0,2.18-.05,3.45-.16,1.26-.11,2.45-.25,3.56-.42l.17,1.16c-1.02.2-2.19.36-3.52.47s-2.62.17-3.89.17h-2.92ZM338.83,551.49v-17.26h1.33v17.26h-1.33Z"/>
          <path d="M344.33,543.41v-8.24h8.3v1.18h-6.97v5.87h1.81c1.06,0,2.22-.05,3.49-.16s2.44-.25,3.52-.42l.17,1.16c-1.05.19-2.23.34-3.56.45-1.33.11-2.61.17-3.84.17h-2.92ZM344.87,539.78v-1.16h7.57v1.16h-7.57ZM346.79,551.49v-6.32h11.09v6.32h-11.09ZM348.12,550.27h8.43v-3.91h-8.43v3.91ZM356.55,543.95v-9.72h1.33v9.72h-1.33Z"/>
        </g>
      </g>
      <g>
        <g>
          <rect class="cls-4" x="472.3" y="278.09" width="153.81" height="44.3" rx="2.56" ry="2.56"/>
          <g>
            <path class="cls-2" d="M519.25,300.4c-4.3,0-7-2.35-7-5.79s2.7-5.79,7-5.79,7.02,2.38,7.02,5.79-2.7,5.79-7.02,5.79ZM533.69,306.65c0,3.42-4.3,4.73-9.75,4.73s-9.72-1.31-9.72-4.73,4.27-4.73,9.72-4.73,9.75,1.31,9.75,4.73ZM519.25,298.18c2.62,0,4.38-1.31,4.38-3.58s-1.76-3.58-4.38-3.58-4.38,1.31-4.38,3.58,1.76,3.58,4.38,3.58ZM530.86,306.65c0-1.74-3.07-2.54-6.92-2.54s-6.91.8-6.91,2.54,3.07,2.54,6.91,2.54,6.92-.77,6.92-2.54ZM530.86,296.26v-3.39h-3.82l-.16-2.27h3.98v-2.03h2.62v12.6h-2.62v-2.64h-3.98l.16-2.27h3.82Z"/>
            <path class="cls-2" d="M559.16,288.57v11.69h-2.64v-4.67h-4.65c-.56,2.7-3.12,4.51-6.92,4.51-4.33,0-7.05-2.32-7.05-5.63s2.72-5.63,7.05-5.63c3.69,0,6.22,1.71,6.86,4.3h4.7v-4.57h2.64ZM556.55,301.52h2.62v9.56h-19.14v-9.56h2.59v2.4h13.94v-2.4ZM549.34,294.47c0-2.14-1.76-3.44-4.38-3.44s-4.41,1.31-4.41,3.44,1.79,3.44,4.41,3.44,4.38-1.31,4.38-3.44ZM556.55,308.92v-2.88h-13.94v2.88h13.94Z"/>
            <path class="cls-2" d="M586.15,305.55h-10.04v6.35h-2.72v-6.35h-10.01v-2.46h22.78v2.46ZM584.55,300.67h-19.6v-11.69h2.62v3.2h14.36v-3.2h2.62v11.69ZM581.94,298.32v-3.79h-14.36v3.79h14.36Z"/>
          </g>
        </g>
        <rect class="cls-1" x="467.82" y="343.74" width="161.96" height="41.89" rx="4.41" ry="4.41"/>
        <g>
          <path d="M510.59,364.9c-1.3,0-2.36-.35-3.18-1.04s-1.23-1.69-1.23-3v-.37c0-.87.19-1.61.58-2.22s.91-1.06,1.57-1.37c.66-.31,1.41-.46,2.26-.46s1.56.15,2.22.46c.66.31,1.18.76,1.57,1.37.39.6.58,1.34.58,2.22v.37c0,.87-.19,1.61-.58,2.22-.39.6-.91,1.06-1.57,1.36-.66.31-1.4.46-2.22.46ZM510.59,363.71c.9,0,1.63-.25,2.19-.75.56-.5.84-1.21.84-2.13v-.3c0-.92-.28-1.63-.84-2.13-.56-.5-1.29-.75-2.19-.75s-1.67.25-2.23.75c-.57.5-.85,1.21-.85,2.13v.3c0,.92.28,1.63.85,2.13.57.5,1.31.75,2.23.75ZM518.24,373.39v-5.27h-9.59v-1.22h10.92v6.49h-1.33ZM518.24,365.69v-9.7h1.33v9.7h-1.33ZM519,359.28v-1.18h3.44v1.18h-3.44ZM519,362.72v-1.18h3.44v1.18h-3.44Z"/>
          <path d="M523.68,364.27v-1.2h16.15v1.2h-16.15ZM535.36,363.67c.2-1.05.36-2.11.48-3.18s.18-1.92.18-2.54v-.77l.52.62h-10.82v-1.22h11.63v1.07c0,.85-.06,1.82-.19,2.92-.13,1.1-.29,2.19-.5,3.29l-1.29-.19ZM536.41,373.41v-5.12h-10.64v-1.2h11.98v6.32h-1.35ZM531.1,367.65v-3.85h1.33v3.85h-1.33Z"/>
          <path d="M546.62,364.72c-.85,0-1.61-.15-2.28-.45-.67-.3-1.21-.74-1.6-1.34-.39-.59-.59-1.32-.59-2.18v-.34c0-.86.2-1.59.59-2.18.39-.59.92-1.04,1.6-1.34s1.43-.45,2.28-.45,1.59.15,2.26.45,1.21.74,1.6,1.34c.39.59.59,1.32.59,2.18v.34c0,.86-.2,1.59-.59,2.18-.39.59-.92,1.04-1.6,1.34-.67.3-1.43.45-2.26.45ZM546.62,363.52c.92,0,1.67-.24,2.24-.73.57-.49.86-1.18.86-2.08v-.28c0-.88-.29-1.57-.86-2.06-.57-.49-1.32-.73-2.24-.73s-1.69.24-2.26.73c-.57.49-.86,1.17-.86,2.06v.28c0,.9.29,1.59.86,2.08s1.33.73,2.26.73ZM548.56,373.39c-.82,0-1.54-.15-2.14-.45s-1.07-.71-1.39-1.23-.49-1.12-.49-1.78.16-1.24.49-1.77c.32-.53.79-.95,1.39-1.25.6-.31,1.32-.46,2.14-.46h3.65c.82,0,1.54.15,2.14.46.6.31,1.07.72,1.39,1.25.32.53.49,1.12.49,1.77s-.16,1.25-.49,1.78c-.32.52-.79.93-1.39,1.23s-1.32.45-2.14.45h-3.65ZM551.93,372.2c.96,0,1.69-.21,2.21-.63.51-.42.77-.97.77-1.65s-.26-1.2-.77-1.63c-.51-.42-1.25-.64-2.21-.64h-3.09c-.96,0-1.69.21-2.21.64s-.77.97-.77,1.63.26,1.24.77,1.65,1.25.63,2.21.63h3.09ZM550.17,359.41v-1.16h5.18v1.16h-5.18ZM550.17,362.64v-1.12h5.18v1.12h-5.18ZM554.66,365.41v-9.42h1.33v9.42h-1.33Z"/>
          <path d="M564.36,364.46c-.85,0-1.61-.15-2.29-.44-.68-.29-1.21-.73-1.61-1.31-.39-.58-.59-1.28-.59-2.1v-.32c0-1.23.42-2.18,1.26-2.85.84-.67,1.92-1,3.23-1,.85,0,1.61.14,2.28.43.67.29,1.21.72,1.6,1.3.39.58.59,1.29.59,2.12v.32c0,.82-.2,1.52-.59,2.1-.39.58-.93,1.02-1.61,1.31-.68.29-1.44.44-2.27.44ZM564.36,363.24c.93,0,1.69-.23,2.27-.7.58-.47.87-1.12.87-1.95v-.28c0-.85-.29-1.5-.87-1.96-.58-.46-1.34-.69-2.27-.69s-1.71.23-2.28.69-.86,1.12-.86,1.96v.28c0,.84.29,1.49.86,1.95s1.33.7,2.28.7ZM562.62,373.22v-7.22h1.33v6h8.41v-6h1.35v7.22h-11.09ZM563.35,369.5v-1.2h9.63v1.2h-9.63ZM568.02,361.05v-1.22h5.05v1.22h-5.05ZM572.36,364.98v-9.01h1.35v9.01h-1.35Z"/>
          <path d="M577.88,365.15v-8.24h8.3v1.18h-6.97v5.87h1.81c1.06,0,2.22-.05,3.49-.16s2.44-.25,3.52-.42l.17,1.16c-1.05.19-2.23.34-3.56.45-1.33.11-2.61.17-3.84.17h-2.92ZM578.42,361.52v-1.16h7.57v1.16h-7.57ZM580.34,373.22v-6.32h11.09v6.32h-11.09ZM581.67,372.01h8.43v-3.91h-8.43v3.91ZM590.1,365.69v-9.72h1.33v9.72h-1.33Z"/>
        </g>
        <rect class="cls-1" x="467.82" y="403.68" width="161.96" height="41.89" rx="4.41" ry="4.41"/>
        <g>
          <path d="M484.59,424.16v-7.81h1.31v6.62h5.59v-6.62h1.33v7.81h-8.23ZM485.23,420.17v-1.2h6.94v1.2h-6.94ZM490.82,432.93c-.82,0-1.54-.15-2.14-.44-.6-.29-1.07-.7-1.39-1.22-.32-.52-.49-1.1-.49-1.75s.16-1.25.49-1.77c.32-.52.79-.93,1.39-1.22s1.32-.45,2.14-.45h3.65c.82,0,1.54.15,2.15.45s1.08.71,1.4,1.22c.32.52.49,1.11.49,1.77s-.16,1.23-.49,1.75c-.32.52-.79.92-1.4,1.22-.61.29-1.33.44-2.15.44h-3.65ZM494.19,431.73c.97,0,1.71-.21,2.22-.62s.76-.95.76-1.61-.25-1.2-.76-1.61-1.24-.62-2.22-.62h-3.08c-.96,0-1.7.21-2.21.62-.51.41-.77.95-.77,1.61s.26,1.2.77,1.61c.51.41,1.25.62,2.21.62h3.08ZM492.43,418.94v-1.16h5.18v1.16h-5.18ZM492.43,422.18v-1.12h5.18v1.12h-5.18ZM496.92,425.04v-9.52h1.33v9.52h-1.33Z"/>
          <path d="M501.61,425.2l-.06-1.16h3.14c1.11,0,2.44-.05,3.99-.15s2.99-.23,4.31-.39l.13,1.12c-1.25.19-2.65.33-4.21.43-1.56.1-2.99.15-4.3.15h-3.01ZM507.05,422.4c-1.31,0-2.39-.27-3.23-.8-.85-.54-1.27-1.3-1.27-2.28v-.24c0-.98.42-1.75,1.27-2.29s1.93-.81,3.23-.81,2.39.27,3.23.81c.85.54,1.27,1.31,1.27,2.29v.24c0,.98-.42,1.75-1.27,2.28-.85.54-1.93.8-3.23.8ZM507.05,421.26c.96,0,1.74-.18,2.34-.53.6-.35.9-.84.9-1.45v-.17c0-.61-.3-1.09-.9-1.45-.6-.35-1.38-.53-2.34-.53s-1.74.18-2.33.53c-.59.36-.89.84-.89,1.45v.17c0,.61.3,1.09.89,1.45.59.36,1.37.53,2.33.53ZM504.69,432.76v-3.79h1.33v2.56h10.75v1.23h-12.08ZM505.91,428.14c.12-1.18.23-2.41.32-3.66h1.31c-.08,1.18-.18,2.44-.32,3.76l-1.31-.09ZM509.39,427.62v-1.1h5.81v1.1h-5.81ZM514.64,429.32v-13.82h1.33v13.82h-1.33Z"/>
          <path d="M518.56,434.38l6.54-19.52h1.4l-6.54,19.52h-1.4Z"/>
          <path d="M527.76,429.92l-.08-1.23h3.14c1.11,0,2.44-.05,3.99-.15s2.99-.23,4.31-.39l.15,1.18c-1.28.19-2.7.33-4.25.44-1.55.11-2.98.16-4.27.16h-2.99ZM533.2,425.76c-.86,0-1.63-.16-2.31-.5-.68-.33-1.22-.83-1.62-1.51-.4-.67-.6-1.5-.6-2.47v-.39c0-.97.2-1.79.6-2.47.4-.67.94-1.17,1.62-1.5.68-.33,1.45-.5,2.31-.5s1.61.17,2.29.5c.68.33,1.22.83,1.62,1.5.4.67.6,1.5.6,2.47v.39c0,.97-.2,1.8-.6,2.47-.4.67-.94,1.17-1.62,1.51-.68.33-1.44.5-2.29.5ZM533.2,424.53c.93,0,1.69-.28,2.28-.84.59-.56.88-1.37.88-2.41v-.35c0-1.05-.29-1.85-.87-2.42-.58-.57-1.34-.85-2.29-.85s-1.71.28-2.3.85c-.59.57-.88,1.37-.88,2.42v.35c0,1.05.29,1.85.88,2.41.59.56,1.35.84,2.3.84ZM540.78,432.76v-17.26h1.33v17.26h-1.33Z"/>
          <path d="M545.49,425.2l-.06-1.16h3.14c1.11,0,2.44-.05,3.99-.15s2.99-.23,4.31-.39l.13,1.12c-1.25.19-2.65.33-4.21.43-1.56.1-2.99.15-4.3.15h-3.01ZM550.93,422.4c-1.31,0-2.39-.27-3.23-.8-.85-.54-1.27-1.3-1.27-2.28v-.24c0-.98.42-1.75,1.27-2.29s1.93-.81,3.23-.81,2.39.27,3.23.81c.85.54,1.27,1.31,1.27,2.29v.24c0,.98-.42,1.75-1.27,2.28-.85.54-1.93.8-3.23.8ZM550.93,421.26c.96,0,1.74-.18,2.34-.53.6-.35.9-.84.9-1.45v-.17c0-.61-.3-1.09-.9-1.45-.6-.35-1.38-.53-2.34-.53s-1.74.18-2.33.53c-.59.36-.89.84-.89,1.45v.17c0,.61.3,1.09.89,1.45.59.36,1.37.53,2.33.53ZM548.57,432.76v-3.79h1.33v2.56h10.75v1.23h-12.08ZM549.79,428.14c.12-1.18.23-2.41.32-3.66h1.31c-.08,1.18-.18,2.44-.32,3.76l-1.31-.09ZM553.26,427.62v-1.1h5.81v1.1h-5.81ZM558.52,429.32v-13.82h1.33v13.82h-1.33Z"/>
          <path d="M568.2,424.25c-.85,0-1.61-.15-2.28-.45-.67-.3-1.2-.74-1.6-1.34-.39-.59-.59-1.32-.59-2.18v-.34c0-.86.2-1.59.59-2.18.39-.59.93-1.04,1.6-1.34.67-.3,1.43-.45,2.28-.45s1.59.15,2.26.45c.67.3,1.2.74,1.6,1.34.39.59.59,1.32.59,2.18v.34c0,.86-.2,1.59-.59,2.18-.39.59-.93,1.04-1.6,1.34-.67.3-1.43.45-2.26.45ZM568.2,423.05c.92,0,1.67-.24,2.24-.73s.86-1.18.86-2.08v-.28c0-.88-.29-1.57-.86-2.06-.57-.49-1.32-.73-2.24-.73s-1.69.24-2.26.73c-.57.49-.86,1.17-.86,2.06v.28c0,.9.29,1.59.86,2.08s1.33.73,2.26.73ZM570.15,432.93c-.82,0-1.54-.15-2.14-.45s-1.07-.71-1.39-1.23c-.32-.52-.49-1.12-.49-1.78s.16-1.24.49-1.77c.32-.53.79-.95,1.39-1.25.6-.31,1.32-.46,2.14-.46h3.65c.82,0,1.54.15,2.14.46.6.31,1.07.72,1.39,1.25.32.53.49,1.12.49,1.77s-.16,1.25-.49,1.78-.79.93-1.39,1.23-1.32.45-2.14.45h-3.65ZM573.51,431.73c.96,0,1.69-.21,2.21-.63s.77-.97.77-1.65-.26-1.2-.77-1.63-1.25-.64-2.21-.64h-3.09c-.96,0-1.69.21-2.2.64-.51.42-.77.97-.77,1.63s.26,1.24.77,1.65c.51.42,1.25.63,2.2.63h3.09ZM571.75,418.94v-1.16h5.18v1.16h-5.18ZM571.75,422.18v-1.12h5.18v1.12h-5.18ZM576.24,424.94v-9.42h1.33v9.42h-1.33Z"/>
          <path d="M585.94,423.99c-.85,0-1.61-.15-2.29-.44-.68-.29-1.22-.73-1.61-1.31-.39-.58-.59-1.28-.59-2.1v-.32c0-1.23.42-2.18,1.26-2.85.84-.67,1.92-1,3.23-1,.85,0,1.61.14,2.28.43.67.29,1.21.72,1.6,1.3.39.58.59,1.29.59,2.12v.32c0,.82-.2,1.52-.59,2.1-.39.58-.93,1.02-1.61,1.31-.68.29-1.44.44-2.27.44ZM585.94,422.77c.94,0,1.69-.23,2.27-.7.58-.47.87-1.12.87-1.95v-.28c0-.85-.29-1.5-.87-1.96-.58-.46-1.34-.69-2.27-.69s-1.71.23-2.28.69c-.57.46-.86,1.12-.86,1.96v.28c0,.84.29,1.49.86,1.95.57.47,1.33.7,2.28.7ZM584.2,432.76v-7.22h1.33v6h8.41v-6h1.35v7.22h-11.09ZM584.93,429.04v-1.2h9.63v1.2h-9.63ZM589.61,420.59v-1.22h5.05v1.22h-5.05ZM593.95,424.51v-9.01h1.35v9.01h-1.35Z"/>
          <path d="M599.46,424.68v-8.24h8.3v1.18h-6.97v5.87h1.81c1.06,0,2.22-.05,3.49-.16,1.26-.11,2.44-.25,3.52-.42l.17,1.16c-1.05.19-2.23.34-3.56.45-1.33.11-2.61.17-3.84.17h-2.92ZM600,421.05v-1.16h7.57v1.16h-7.57ZM601.93,432.76v-6.32h11.09v6.32h-11.09ZM603.25,431.54h8.43v-3.91h-8.43v3.91ZM611.69,425.22v-9.72h1.33v9.72h-1.33Z"/>
        </g>
        <rect class="cls-1" x="467.82" y="463.61" width="161.96" height="41.89" rx="4.41" ry="4.41"/>
        <g>
          <path d="M506.07,491.76v-1.23h16.15v1.23h-16.15ZM519.98,477.16v1.22h-10.49v6.43h10.66v1.2h-11.98v-8.84h11.82ZM513.49,491.48v-6.19h1.33v6.19h-1.33Z"/>
          <path d="M524.31,490.3v-13.03h6.75v13.03h-6.75ZM525.58,489.06h4.21v-10.56h-4.21v10.56ZM533.31,492.82v-16.66h1.31v16.66h-1.31ZM533.89,483.87v-1.23h3.96v1.23h-3.96ZM537.29,493.14v-17.26h1.31v17.26h-1.31Z"/>
          <path d="M541.33,489.91c1.23-1.57,2.15-3.11,2.75-4.62.6-1.51.9-3.17.9-4.97v-.65h1.31v.65c0,1.92-.32,3.71-.96,5.38-.64,1.67-1.64,3.35-2.98,5.05l-1.01-.84ZM541.85,480.05v-1.22h7.61v1.22h-7.61ZM548.94,490.54l-4.26-6.26.95-.9,4.37,6.36-1.07.8ZM544.97,479.31v-3.4h1.31v3.4h-1.31ZM551.03,492.82v-16.66h1.29v16.66h-1.29ZM551.59,483.87v-1.23h3.96v1.23h-3.96ZM554.99,493.14v-17.26h1.31v17.26h-1.31Z"/>
          <path d="M560.45,483.74v-7.01h1.35v5.78h1.5c1.01,0,2.14-.05,3.39-.15,1.25-.1,2.43-.24,3.52-.41l.17,1.16c-1.05.19-2.23.34-3.53.46-1.31.12-2.57.18-3.78.18h-2.62ZM562.75,493.23v-4.47h9.76v-2.06h-9.85v-1.14h11.18v4.36h-9.76v2.13h10.47v1.18h-11.8ZM567.57,479.77v-1.2h5.63v1.2h-5.63ZM572.51,484.33v-8.45h1.33v8.45h-1.33Z"/>
          <path d="M577.99,485.06v-8.24h8.3v1.18h-6.97v5.87h1.81c1.06,0,2.22-.05,3.49-.16s2.44-.25,3.52-.42l.17,1.16c-1.05.19-2.23.34-3.56.45-1.33.11-2.61.17-3.84.17h-2.92ZM578.53,481.44v-1.16h7.57v1.16h-7.57ZM580.46,493.14v-6.32h11.09v6.32h-11.09ZM581.78,491.92h8.43v-3.91h-8.43v3.91ZM590.22,485.61v-9.72h1.33v9.72h-1.33Z"/>
        </g>
        <rect class="cls-1" x="467.82" y="523.55" width="161.96" height="41.89" rx="4.41" ry="4.41"/>
        <g>
          <path d="M479.48,551.63v-1.22h16.15v1.22h-16.15ZM480.45,545.33c2.22-1.07,3.86-2.2,4.93-3.37,1.07-1.18,1.6-2.45,1.6-3.8v-1.38h1.33v1.38c0,1.61-.58,3.1-1.75,4.48-1.17,1.38-2.99,2.66-5.49,3.84l-.62-1.14ZM493.91,546.47l-7.2-5.03.6-1.14,7.35,5.09-.75,1.08Z"/>
          <path d="M497.06,550.18l-.06-1.23h2.28c.93,0,2-.04,3.2-.12,1.2-.08,2.31-.2,3.35-.35l.15,1.18c-1.01.16-2.12.29-3.33.38-1.21.09-2.36.14-3.44.14h-2.15ZM497.09,538.4v-1.23h8.19v1.23h-8.19ZM498.64,549.3v-11.52h1.23v11.52h-1.23ZM502.5,549.17v-11.39h1.25v11.39h-1.25ZM504.72,543.93v-1.22h2.92v1.22h-2.92ZM507.08,552.72v-16.66h1.29v16.66h-1.29ZM510.69,553.04v-17.26h1.31v17.26h-1.31Z"/>
          <path d="M515.13,543.41c1.51-.84,2.64-1.74,3.38-2.71.75-.97,1.12-2.08,1.12-3.31v-1.01h1.33v1.01c0,1.48-.43,2.8-1.28,3.95s-2.15,2.21-3.9,3.17l-.66-1.1ZM518.42,553.13v-4.47h9.76v-2.06h-9.85v-1.14h11.18v4.36h-9.76v2.13h10.47v1.18h-11.8ZM524.74,544.23l-5.31-3.57.77-.99,5.23,3.5-.69,1.07ZM524.46,538.94v-1.14h4.41v1.14h-4.41ZM524.46,541.82v-1.12h4.41v1.12h-4.41ZM528.18,544.23v-8.45h1.33v8.45h-1.33Z"/>
          <path d="M532.46,549.8c1.23-1.57,2.15-3.11,2.75-4.62.6-1.51.9-3.17.9-4.97v-.65h1.31v.65c0,1.92-.32,3.71-.96,5.38-.64,1.67-1.64,3.35-2.98,5.05l-1.01-.84ZM532.99,539.95v-1.22h7.61v1.22h-7.61ZM540.07,550.44l-4.26-6.26.95-.9,4.38,6.36-1.07.8ZM536.11,539.2v-3.4h1.31v3.4h-1.31ZM542.17,552.72v-16.66h1.29v16.66h-1.29ZM542.73,543.76v-1.23h3.96v1.23h-3.96ZM546.13,553.04v-17.26h1.31v17.26h-1.31Z"/>
          <path d="M551.59,543.63v-7.01h1.35v5.78h1.5c1.01,0,2.14-.05,3.39-.15,1.25-.1,2.43-.24,3.52-.41l.17,1.16c-1.05.19-2.23.34-3.53.46-1.31.12-2.57.18-3.78.18h-2.62ZM553.89,553.13v-4.47h9.76v-2.06h-9.85v-1.14h11.18v4.36h-9.76v2.13h10.47v1.18h-11.8ZM558.71,539.67v-1.2h5.63v1.2h-5.63ZM563.65,544.23v-8.45h1.33v8.45h-1.33Z"/>
          <path d="M573.31,544.53c-.85,0-1.61-.15-2.28-.45-.67-.3-1.21-.74-1.6-1.34-.39-.59-.59-1.32-.59-2.18v-.34c0-.86.2-1.59.59-2.18.39-.59.93-1.04,1.6-1.34.67-.3,1.43-.45,2.28-.45s1.59.15,2.26.45c.67.3,1.21.74,1.6,1.34.39.59.59,1.32.59,2.18v.34c0,.86-.2,1.59-.59,2.18-.39.59-.93,1.04-1.6,1.34-.67.3-1.43.45-2.26.45ZM573.31,543.33c.92,0,1.67-.24,2.24-.73s.86-1.18.86-2.08v-.28c0-.88-.29-1.57-.86-2.06-.57-.49-1.32-.73-2.24-.73s-1.69.24-2.26.73c-.57.49-.86,1.17-.86,2.06v.28c0,.9.29,1.59.86,2.08.57.49,1.33.73,2.26.73ZM575.26,553.21c-.82,0-1.54-.15-2.14-.45s-1.07-.71-1.39-1.23-.49-1.12-.49-1.78.16-1.24.49-1.77c.32-.53.79-.95,1.39-1.25.6-.31,1.32-.46,2.14-.46h3.65c.82,0,1.54.15,2.14.46.6.31,1.07.72,1.39,1.25.32.53.49,1.12.49,1.77s-.16,1.25-.49,1.78-.79.93-1.39,1.23-1.32.45-2.14.45h-3.65ZM578.62,552.01c.96,0,1.69-.21,2.21-.63s.77-.97.77-1.65-.26-1.2-.77-1.63-1.25-.64-2.21-.64h-3.08c-.96,0-1.7.21-2.21.64s-.77.97-.77,1.63.25,1.24.77,1.65,1.25.63,2.21.63h3.08ZM576.87,539.22v-1.16h5.18v1.16h-5.18ZM576.87,542.46v-1.12h5.18v1.12h-5.18ZM581.35,545.22v-9.42h1.33v9.42h-1.33Z"/>
          <path d="M591.06,544.27c-.85,0-1.61-.15-2.29-.44-.68-.29-1.22-.73-1.61-1.31-.39-.58-.59-1.28-.59-2.1v-.32c0-1.23.42-2.18,1.26-2.85.84-.67,1.92-1,3.23-1,.85,0,1.61.14,2.28.43.67.29,1.21.72,1.6,1.3.39.58.59,1.29.59,2.12v.32c0,.82-.2,1.52-.59,2.1-.39.58-.93,1.02-1.61,1.31-.68.29-1.44.44-2.27.44ZM591.06,543.05c.94,0,1.69-.23,2.27-.7.58-.47.87-1.12.87-1.95v-.28c0-.85-.29-1.5-.87-1.96-.58-.46-1.34-.69-2.27-.69s-1.71.23-2.28.69c-.57.46-.86,1.12-.86,1.96v.28c0,.84.29,1.49.86,1.95.57.47,1.33.7,2.28.7ZM589.32,553.04v-7.22h1.33v6h8.41v-6h1.35v7.22h-11.09ZM590.05,549.32v-1.2h9.63v1.2h-9.63ZM594.72,540.87v-1.22h5.05v1.22h-5.05ZM599.06,544.79v-9.01h1.35v9.01h-1.35Z"/>
          <path d="M604.57,544.96v-8.24h8.3v1.18h-6.97v5.87h1.81c1.06,0,2.22-.05,3.49-.16,1.26-.11,2.44-.25,3.52-.42l.17,1.16c-1.05.19-2.23.34-3.56.45-1.33.11-2.61.17-3.84.17h-2.92ZM605.12,541.33v-1.16h7.57v1.16h-7.57ZM607.04,553.04v-6.32h11.09v6.32h-11.09ZM608.37,551.82h8.43v-3.91h-8.43v3.91ZM616.8,545.5v-9.72h1.33v9.72h-1.33Z"/>
        </g>
      </g>
      <g>
        <g>
          <rect class="cls-4" x="706.66" y="278.09" width="153.81" height="44.3" rx="2.56" ry="2.56"/>
          <g>
            <path class="cls-2" d="M734.19,289.4h12.68v20.61h-12.68v-20.61ZM736.83,307.56h7.4v-15.7h-7.4v15.7ZM756.97,300.35h-3.2v11.03h-2.64v-22.8h2.64v9.24h3.2v2.54Z"/>
            <path class="cls-2" d="M772.61,288.71h2.48v22.27h-2.48v-10.68h-3.82c-.91,5.93-4.41,9.51-9.48,9.67v-2.43c4.03-.21,6.38-3.07,7.02-7.45h-7.02v-2.38h7.21v-5.93h-7.21v-2.38h9.72v8.41h3.58v-9.1ZM780.73,288.57v22.8h-2.51v-22.8h2.51Z"/>
            <path class="cls-2" d="M793.94,301.12h-8.41v-11.99h14.15v2.16h-11.53v2.75h11.08v2.11h-11.08v2.8h6.01c3.1,0,5.71-.37,7.18-1.01v2.16c-1.42.61-4.17,1.02-7.4,1.02ZM806.11,307.13c0,3.15-4.35,4.25-9.91,4.25s-9.91-1.1-9.91-4.25,4.38-4.25,9.91-4.25,9.91,1.07,9.91,4.25ZM803.31,307.13c0-1.55-3.12-2.14-7.1-2.14s-7.1.59-7.1,2.14,3.15,2.14,7.1,2.14,7.1-.59,7.1-2.14ZM805.77,302.16h-2.64v-13.59h2.64v13.59Z"/>
            <path class="cls-2" d="M832.95,305.55h-10.04v6.35h-2.72v-6.35h-10.01v-2.46h22.78v2.46ZM831.34,300.67h-19.6v-11.69h2.62v3.2h14.36v-3.2h2.62v11.69ZM828.73,298.32v-3.79h-14.36v3.79h14.36Z"/>
          </g>
        </g>
        <rect class="cls-1" x="701.49" y="343.46" width="161.96" height="41.89" rx="4.41" ry="4.41"/>
        <g>
          <path d="M757.38,365.19l-.06-1.22h2.97c1.1,0,2.4-.05,3.93-.14s2.91-.22,4.17-.38l.15,1.16c-1.28.18-2.69.32-4.22.42-1.53.11-2.9.16-4.1.16h-2.84ZM765.1,362.33c.16-.85.29-1.68.37-2.51.09-.82.13-1.51.13-2.06v-.67l.54.62h-7.63v-1.14h8.41v.79c0,1.4-.18,3.11-.54,5.14l-1.29-.17ZM764.11,373.12c-.82,0-1.54-.13-2.14-.39-.6-.26-1.07-.63-1.39-1.09-.32-.47-.49-1.01-.49-1.62s.16-1.15.49-1.62c.32-.47.79-.84,1.39-1.1.6-.27,1.32-.4,2.14-.4h3.5c.82,0,1.54.13,2.14.4s1.07.64,1.39,1.1c.32.47.49,1.01.49,1.62,0,.93-.36,1.69-1.08,2.25-.72.57-1.7.85-2.94.85h-3.5ZM761.27,364.55v-4.47h1.35v4.47h-1.35ZM767.34,371.94c.96,0,1.69-.17,2.19-.52s.75-.82.75-1.4-.25-1.06-.76-1.41c-.5-.36-1.23-.53-2.18-.53h-2.95c-.96,0-1.69.18-2.2.53-.5.35-.76.83-.76,1.41s.25,1.05.76,1.4,1.24.52,2.2.52h2.95ZM770.03,366.03v-10.32h1.33v10.32h-1.33ZM770.76,361.69v-1.23h3.29v1.23h-3.29Z"/>
          <path d="M775.31,371.56v-1.23h16.15v1.23h-16.15ZM787.21,367.04c.27-1.46.5-2.94.67-4.46.17-1.51.26-2.74.26-3.67v-1.16l.52.62h-11.55v-1.22h12.36v1.46c0,1.16-.09,2.51-.26,4.04-.18,1.53-.4,3.08-.69,4.64l-1.31-.24ZM781.55,371.28v-8.26h1.33v8.26h-1.33Z"/>
          <path d="M794.06,364.87v-8.24h8.3v1.18h-6.97v5.87h1.81c1.06,0,2.22-.05,3.49-.16s2.44-.25,3.52-.42l.17,1.16c-1.05.19-2.23.34-3.56.45-1.33.11-2.61.17-3.84.17h-2.92ZM794.6,361.25v-1.16h7.57v1.16h-7.57ZM796.52,372.95v-6.32h11.09v6.32h-11.09ZM797.85,371.73h8.43v-3.91h-8.43v3.91ZM806.28,365.41v-9.72h1.33v9.72h-1.33Z"/>
        </g>
        <rect class="cls-1" x="701.49" y="403.37" width="161.96" height="41.89" rx="4.41" ry="4.41"/>
        <g>
          <path d="M730.87,431.48v-1.23h16.15v1.23h-16.15ZM732.96,426.28v-9.5h1.33v8.26h9.31v-8.26h1.35v9.5h-11.98ZM733.71,421.57v-1.22h10.49v1.22h-10.49Z"/>
          <path d="M749.23,426.17v-5.44h5.22v-2.9h-5.22v-1.2h6.49v5.27h-5.23v3.05h1.25c.91,0,1.75-.03,2.53-.09.78-.06,1.62-.16,2.53-.3l.15,1.18c-.86.15-1.71.26-2.54.33-.83.07-1.81.1-2.92.1h-2.26ZM752.09,432.86v-4.88h1.35v3.65h10.79v1.23h-12.13ZM758.24,428.34v-12.55h1.27v12.55h-1.27ZM758.84,421.78v-1.22h3.83v1.22h-3.83ZM762.13,428.88v-13.27h1.29v13.27h-1.29Z"/>
          <path d="M766.31,431.48v-1.23h16.15v1.23h-16.15ZM780.22,416.88v1.23h-10.49v6.58h10.66v1.22h-11.98v-9.03h11.81Z"/>
          <path d="M784.3,425.38c1.56-1.12,2.71-2.24,3.47-3.35s1.13-2.37,1.13-3.78v-1.03h1.31v1.03c0,1.62-.42,3.08-1.27,4.38-.85,1.3-2.15,2.56-3.91,3.77l-.73-1.03ZM784.97,417.83v-1.2h9.2v1.2h-9.2ZM787.53,432.86v-5.25h1.33v4.02h10.56v1.23h-11.89ZM794.09,426.13l-5.53-4.51.79-.97,5.52,4.43-.77,1.05ZM793.57,421.57v-1.18h4.41v1.18h-4.41ZM797.29,428.71v-13.11h1.33v13.11h-1.33Z"/>
          <path d="M802.26,425.07v-4.94h6.45v-2.41h-6.45v-1.18h7.76v4.77h-6.45v2.56h1.74c1.02,0,2.13-.05,3.34-.15,1.2-.1,2.35-.23,3.43-.39l.15,1.14c-1.05.17-2.2.32-3.45.43s-2.48.17-3.69.17h-2.82ZM814.04,433.03v-4.9h-9.59v-1.23h10.94v6.13h-1.35ZM814.04,425.68v-10.06h1.35v10.06h-1.35ZM814.83,419.1v-1.2h3.42v1.2h-3.42ZM814.83,422.54v-1.2h3.42v1.2h-3.42Z"/>
          <path d="M820.51,424.79v-8.24h8.3v1.18h-6.97v5.87h1.81c1.06,0,2.22-.05,3.49-.16,1.26-.11,2.44-.25,3.52-.42l.17,1.16c-1.05.19-2.23.34-3.56.45-1.33.11-2.61.17-3.84.17h-2.92ZM821.05,421.16v-1.16h7.57v1.16h-7.57ZM822.98,432.86v-6.32h11.09v6.32h-11.09ZM824.31,431.65h8.43v-3.91h-8.43v3.91ZM832.74,425.33v-9.72h1.33v9.72h-1.33Z"/>
        </g>
        <rect class="cls-1" x="701.49" y="463.29" width="161.96" height="41.89" rx="4.41" ry="4.41"/>
        <g>
          <path d="M730.87,491.37v-1.22h16.15v1.22h-16.15ZM731.84,484.89c2.22-1.05,3.86-2.14,4.93-3.29,1.07-1.15,1.6-2.39,1.6-3.72v-1.37h1.33v1.37c0,1.57-.58,3.04-1.75,4.39-1.17,1.36-2.99,2.62-5.49,3.78l-.62-1.16ZM745.3,486.05l-7.22-4.94.6-1.14,7.37,4.97-.75,1.1ZM738.29,491.09v-5.53h1.33v5.53h-1.33Z"/>
          <path d="M749.53,489.93v-13.22h1.31v11.98h5.61v-11.98h1.33v13.22h-8.24ZM750.16,483.05v-1.22h6.97v1.22h-6.97ZM761.85,492.78v-17.26h1.33v17.26h-1.33Z"/>
          <path d="M766.03,489.49c1.01-1.08,1.84-2.14,2.5-3.17.65-1.03,1.16-2.12,1.51-3.29s.53-2.44.53-3.82v-1.53h1.31v1.53c0,2.13-.4,4.08-1.2,5.85-.8,1.77-2.03,3.55-3.68,5.33l-.97-.9ZM766.71,478.21v-1.22h9.09v1.22h-9.09ZM775.46,490.2l-5.33-6.51.99-.9,5.37,6.51-1.03.9ZM778.6,492.78v-17.26h1.33v17.26h-1.33ZM779.36,483.5v-1.23h3.42v1.23h-3.42Z"/>
          <path d="M784.3,485.3c1.56-1.12,2.71-2.24,3.47-3.35s1.13-2.37,1.13-3.78v-1.03h1.31v1.03c0,1.62-.42,3.08-1.27,4.38-.85,1.3-2.15,2.56-3.91,3.77l-.73-1.03ZM784.97,477.75v-1.2h9.2v1.2h-9.2ZM787.53,492.78v-5.25h1.33v4.02h10.56v1.23h-11.89ZM794.09,486.05l-5.53-4.51.79-.97,5.52,4.43-.77,1.05ZM793.57,481.48v-1.18h4.41v1.18h-4.41ZM797.29,488.63v-13.11h1.33v13.11h-1.33Z"/>
          <path d="M802.79,484.98v-4.94h6.26v-2.41h-6.26v-1.18h7.57v4.77h-6.26v2.56h1.65c.98,0,2.03-.05,3.14-.14s2.18-.22,3.22-.38l.15,1.16c-2.22.37-4.47.56-6.75.56h-2.71ZM815.02,492.95v-4.9h-9.95v-1.23h11.27v6.13h-1.33ZM811.84,479.02v-1.1h3.87v1.1h-3.87ZM811.84,482.27v-1.12h3.87v1.12h-3.87ZM815.02,485.6v-10.06h1.33v10.06h-1.33Z"/>
          <path d="M820.51,484.7v-8.24h8.3v1.18h-6.97v5.87h1.81c1.06,0,2.22-.05,3.49-.16,1.26-.11,2.44-.25,3.52-.42l.17,1.16c-1.05.19-2.23.34-3.56.45-1.33.11-2.61.17-3.84.17h-2.92ZM821.05,481.07v-1.16h7.57v1.16h-7.57ZM822.98,492.78v-6.32h11.09v6.32h-11.09ZM824.31,491.56h8.43v-3.91h-8.43v3.91ZM832.74,485.24v-9.72h1.33v9.72h-1.33Z"/>
        </g>
        <rect class="cls-1" x="701.49" y="523.2" width="161.96" height="41.89" rx="4.41" ry="4.41"/>
        <g>
          <path d="M757.45,546.41v-1.12h16.15v1.12h-16.15ZM758.98,538.01v-1.08h13.09v1.08h-13.09ZM763.57,552.99c-1.36,0-2.4-.23-3.12-.69-.72-.46-1.08-1.1-1.08-1.93s.36-1.45,1.08-1.92c.72-.47,1.76-.7,3.12-.7h3.94c1.37,0,2.41.23,3.13.7.72.47,1.08,1.11,1.08,1.92s-.36,1.46-1.08,1.93c-.72.46-1.76.69-3.13.69h-3.94ZM763.79,543.85c-1.25,0-2.23-.21-2.94-.62-.71-.41-1.07-.98-1.07-1.72s.35-1.35,1.06-1.76c.7-.41,1.69-.62,2.94-.62h3.5c1.25,0,2.22.21,2.93.62.7.41,1.06,1,1.06,1.76s-.36,1.31-1.07,1.72c-.71.41-1.68.62-2.92.62h-3.5ZM767.15,551.89c1.08,0,1.89-.13,2.42-.39.53-.26.79-.64.79-1.12s-.26-.88-.79-1.13c-.53-.26-1.34-.38-2.42-.38h-3.25c-1.08,0-1.89.13-2.42.38-.53.26-.79.63-.79,1.13s.27.86.8,1.12c.53.26,1.34.39,2.41.39h3.25ZM766.97,542.74c.97,0,1.71-.11,2.22-.33.5-.22.76-.53.76-.93s-.25-.73-.76-.94-1.24-.33-2.22-.33h-2.88c-.96,0-1.69.11-2.21.33s-.77.53-.77.94.25.71.76.93c.5.22,1.24.33,2.22.33h2.88ZM764.87,546.05v-2.75h1.33v2.75h-1.33ZM764.93,537.45v-2.15h1.33v2.15h-1.33Z"/>
          <path d="M775.17,551.44v-1.23h16.15v1.23h-16.15ZM777.27,546.05v-9.31h1.33v8.1h9.31v-8.1h1.35v9.31h-11.98ZM778.02,541.45v-1.23h10.49v1.23h-10.49ZM782.6,551.16v-5.8h1.33v5.8h-1.33Z"/>
          <path d="M793.93,544.75v-8.24h8.3v1.18h-6.97v5.87h1.81c1.06,0,2.22-.05,3.49-.16s2.44-.25,3.52-.42l.17,1.16c-1.05.19-2.23.34-3.56.45-1.33.11-2.61.17-3.84.17h-2.92ZM794.47,541.12v-1.16h7.57v1.16h-7.57ZM796.39,552.82v-6.32h11.09v6.32h-11.09ZM797.72,551.61h8.43v-3.91h-8.43v3.91ZM806.15,545.29v-9.72h1.33v9.72h-1.33Z"/>
        </g>
      </g>
      <g>
        <g>
          <rect class="cls-4" x="939.58" y="278.09" width="153.81" height="44.3" rx="2.56" ry="2.56"/>
          <g>
            <path class="cls-2" d="M988.02,302.11h-8.6v-2.27h4.46v-5.42h2.62v5.42h1.6c3.12,0,5.9-.21,7.48-.88v2.27c-1.44.64-4.3.88-7.56.88ZM990.74,291.24h-10.23v-2.3h12.87v8.84h-2.64v-6.54ZM983.69,308.78h17.03v2.3h-19.7v-6.7h2.67v4.41ZM1003.26,294.74v2.48h-3.15v8.68h-2.64v-17.33h2.64v6.17h3.15Z"/>
            <path class="cls-2" d="M1006.41,298.32h10.2v-6.49h-10.25v-2.43h12.9v11.35h-10.2v6.84h6.67c2.16,0,4.51-.43,5.9-1.1v2.43c-1.39.69-3.76,1.09-5.98,1.09h-9.24v-11.69ZM1023.74,288.57h2.64v22.8h-2.64v-22.8Z"/>
            <path class="cls-2" d="M1053.56,305.55h-10.04v6.35h-2.72v-6.35h-10.01v-2.46h22.78v2.46ZM1051.96,300.67h-19.6v-11.69h2.62v3.2h14.36v-3.2h2.62v11.69ZM1049.34,298.32v-3.79h-14.36v3.79h14.36Z"/>
          </g>
        </g>
        <rect class="cls-1" x="935.51" y="343.67" width="161.96" height="41.89" rx="3.94" ry="3.94"/>
        <g>
          <path d="M991.47,371.86v-1.23h16.15v1.23h-16.15ZM993.57,366.47v-9.31h1.33v8.1h9.31v-8.1h1.35v9.31h-11.98ZM994.32,361.88v-1.23h10.49v1.23h-10.49ZM998.9,371.58v-5.8h1.33v5.8h-1.33Z"/>
          <path d="M1013.83,365.99c-.84,0-1.59-.17-2.25-.5-.67-.34-1.19-.84-1.58-1.51-.39-.67-.58-1.5-.58-2.49v-.39c0-.98.19-1.82.58-2.51.39-.69.91-1.2,1.58-1.53.67-.34,1.42-.5,2.25-.5s1.56.17,2.23.5c.66.34,1.18.85,1.57,1.53.39.69.58,1.52.58,2.51v.39c0,.98-.19,1.81-.58,2.49-.39.67-.91,1.18-1.57,1.51-.66.34-1.4.5-2.23.5ZM1013.83,364.79c.9,0,1.63-.29,2.19-.86.56-.57.84-1.4.84-2.47v-.37c0-1.07-.28-1.9-.84-2.48s-1.29-.87-2.19-.87-1.67.29-2.23.87-.85,1.41-.85,2.48v.37c0,1.07.28,1.9.85,2.47.57.57,1.31.86,2.23.86ZM1012.08,373.24v-5.25h1.35v4.02h10.38v1.23h-11.72ZM1021.48,369.09v-13.11h1.33v13.11h-1.33ZM1022.25,361.8v-1.23h3.44v1.23h-3.44Z"/>
          <path d="M1027.95,365.17v-8.24h8.3v1.18h-6.97v5.87h1.81c1.06,0,2.22-.05,3.49-.16s2.44-.25,3.52-.42l.17,1.16c-1.05.19-2.23.34-3.56.45-1.33.11-2.61.17-3.84.17h-2.92ZM1028.49,361.54v-1.16h7.57v1.16h-7.57ZM1030.42,373.24v-6.32h11.09v6.32h-11.09ZM1031.74,372.03h8.43v-3.91h-8.43v3.91ZM1040.18,365.71v-9.72h1.33v9.72h-1.33Z"/>
        </g>
        <rect class="cls-1" x="935.51" y="403.64" width="161.96" height="41.89" rx="3.94" ry="3.94"/>
        <g>
          <path d="M996.35,425.96c-.85,0-1.61-.17-2.29-.5-.68-.34-1.22-.84-1.62-1.51-.4-.67-.6-1.5-.6-2.49v-.39c0-.98.2-1.82.6-2.51.4-.69.94-1.2,1.62-1.53.68-.34,1.44-.5,2.29-.5s1.59.17,2.27.5c.68.34,1.21.85,1.61,1.53.39.69.59,1.52.59,2.51v.39c0,.98-.2,1.81-.59,2.49-.39.67-.93,1.18-1.61,1.51-.68.34-1.44.5-2.27.5ZM996.35,424.76c.93,0,1.69-.29,2.27-.86.58-.57.87-1.4.87-2.47v-.37c0-1.07-.29-1.9-.87-2.48-.58-.58-1.34-.87-2.27-.87s-1.7.29-2.28.87c-.59.58-.88,1.41-.88,2.48v.37c0,1.07.29,1.9.87,2.47.58.57,1.34.86,2.29.86ZM994.6,433.21v-5.51h1.35v4.28h10.56v1.23h-11.91ZM1004.35,429.06v-13.11h1.35v13.11h-1.35Z"/>
          <path d="M1008.41,429.92c1.56-1.6,2.71-3.25,3.47-4.97s1.13-3.64,1.13-5.76v-2.17h1.31v2.17c0,2.23-.4,4.29-1.22,6.18-.81,1.89-2.06,3.71-3.76,5.45l-.93-.9ZM1017.95,430.63l-5.37-6.6.99-.84,5.37,6.58-.99.86ZM1021.09,433.21v-17.26h1.35v17.26h-1.35ZM1021.87,423.94v-1.23h3.42v1.23h-3.42Z"/>
          <path d="M1027.58,425.13v-8.24h8.3v1.18h-6.97v5.87h1.81c1.06,0,2.22-.05,3.49-.16s2.44-.25,3.52-.42l.17,1.16c-1.05.19-2.23.34-3.56.45-1.33.11-2.61.17-3.84.17h-2.92ZM1028.12,421.51v-1.16h7.57v1.16h-7.57ZM1030.04,433.21v-6.32h11.09v6.32h-11.09ZM1031.37,431.99h8.43v-3.91h-8.43v3.91ZM1039.8,425.68v-9.72h1.33v9.72h-1.33Z"/>
        </g>
        <rect class="cls-1" x="935.51" y="463.6" width="161.96" height="41.89" rx="3.94" ry="3.94"/>
        <g>
          <path d="M991.37,489.86c1.25-1.62,2.17-3.23,2.78-4.81s.91-3.38.91-5.37v-1.68h1.29v1.68c0,2.07-.32,3.98-.96,5.74-.64,1.76-1.62,3.52-2.94,5.29l-1.07-.84ZM991.99,478.53v-1.22h7.46v1.22h-7.46ZM998.96,490.5l-4.3-6.47,1.05-.84,4.34,6.52-1.08.79ZM1001.09,492.78v-16.66h1.29v16.66h-1.29ZM1001.65,483.82v-1.23h3.96v1.23h-3.96ZM1005.06,493.09v-17.26h1.31v17.26h-1.31Z"/>
          <path d="M1010.27,484.12c2.18-.71,3.9-1.6,5.15-2.68s1.88-2.23,1.88-3.45v-.5l.52.62h-7.27v-1.23h8.1v.84c0,1.71-.68,3.19-2.04,4.45-1.36,1.26-3.3,2.3-5.81,3.12l-.52-1.16ZM1016.46,493.26c-.82,0-1.54-.15-2.14-.45s-1.07-.71-1.39-1.23-.49-1.12-.49-1.78.16-1.24.49-1.77c.32-.53.79-.95,1.39-1.25.6-.31,1.32-.46,2.14-.46h3.65c.82,0,1.54.15,2.15.46.61.31,1.08.72,1.4,1.25.32.53.49,1.12.49,1.77s-.16,1.25-.49,1.78-.79.93-1.4,1.23c-.61.3-1.33.45-2.15.45h-3.65ZM1019.84,492.07c.96,0,1.69-.21,2.2-.63s.76-.97.76-1.65-.25-1.2-.76-1.63-1.24-.64-2.2-.64h-3.1c-.96,0-1.69.21-2.21.64s-.77.97-.77,1.63.26,1.24.77,1.65,1.25.63,2.21.63h3.1ZM1018.05,479.8v-1.14h5.2v1.14h-5.2ZM1018.2,483.05v-1.14h5.05v1.14h-5.05ZM1022.56,485.28v-9.42h1.33v9.42h-1.33Z"/>
          <path d="M1028.05,485.02v-8.24h8.3v1.18h-6.97v5.87h1.81c1.06,0,2.22-.05,3.49-.16s2.44-.25,3.52-.42l.17,1.16c-1.05.19-2.23.34-3.56.45-1.33.11-2.61.17-3.84.17h-2.92ZM1028.59,481.39v-1.16h7.57v1.16h-7.57ZM1030.52,493.09v-6.32h11.09v6.32h-11.09ZM1031.85,491.88h8.43v-3.91h-8.43v3.91ZM1040.28,485.56v-9.72h1.33v9.72h-1.33Z"/>
        </g>
        <rect class="cls-1" x="935.51" y="523.57" width="161.96" height="41.89" rx="3.94" ry="3.94"/>
        <g>
          <path d="M973.75,551.68v-1.23h16.15v1.23h-16.15ZM985.66,547.15c.27-1.46.5-2.94.67-4.46.18-1.51.26-2.74.26-3.67v-1.16l.52.62h-11.55v-1.22h12.36v1.46c0,1.16-.09,2.51-.26,4.04-.17,1.53-.4,3.08-.69,4.64l-1.31-.24ZM979.99,551.4v-8.26h1.33v8.26h-1.33Z"/>
          <path d="M991.89,544.56c1.75-.81,3.12-1.79,4.13-2.94,1.01-1.15,1.51-2.36,1.51-3.63v-.52l.52.6h-5.83v-1.23h6.64v.9c0,1.17-.25,2.24-.76,3.21-.5.97-1.22,1.84-2.16,2.61-.93.77-2.06,1.47-3.38,2.09l-.67-1.08ZM1004.94,553.23v-5.27h-9.98v-1.22h11.33v6.49h-1.35ZM1001.1,545.53v-9.54h1.27v9.54h-1.27ZM1001.7,541.08v-1.22h3.83v1.22h-3.83ZM1004.99,545.53v-9.7h1.29v9.7h-1.29Z"/>
          <path d="M1008.99,546.43l-.06-1.22h2.97c1.07,0,2.37-.05,3.89-.15,1.52-.1,2.92-.23,4.21-.39l.15,1.18c-1.22.19-2.59.33-4.11.43-1.52.1-2.92.15-4.21.15h-2.84ZM1016.64,543.17c.19-.91.33-1.83.43-2.76.1-.93.15-1.71.15-2.35v-.75l.54.62h-7.63v-1.18h8.41v.9c0,1.61-.21,3.51-.62,5.72l-1.29-.21ZM1012.08,553.06v-4.52h1.33v3.29h10.56v1.23h-11.89ZM1012.9,545.58v-4.84h1.35v4.84h-1.35ZM1021.65,549.17v-13.37h1.33v13.37h-1.33ZM1022.38,542.54v-1.25h3.29v1.25h-3.29Z"/>
          <path d="M1027.95,550.56v-7.38h6.69v-4.77h-6.69v-1.22h8.04v7.2h-6.71v4.95h1.81c1.03,0,2.18-.05,3.45-.16,1.26-.11,2.45-.25,3.56-.42l.17,1.16c-1.02.2-2.19.36-3.52.47s-2.62.17-3.89.17h-2.92ZM1040.18,553.06v-17.26h1.33v17.26h-1.33Z"/>
          <path d="M1045.67,544.99v-8.24h8.3v1.18h-6.97v5.87h1.81c1.06,0,2.22-.05,3.49-.16s2.44-.25,3.52-.42l.17,1.16c-1.05.19-2.23.34-3.56.45-1.33.11-2.61.17-3.84.17h-2.92ZM1046.21,541.36v-1.16h7.57v1.16h-7.57ZM1048.14,553.06v-6.32h11.09v6.32h-11.09ZM1049.47,551.85h8.43v-3.91h-8.43v3.91ZM1057.9,545.53v-9.72h1.33v9.72h-1.33Z"/>
        </g>
      </g>
      <g>
        <rect class="cls-3" x="660.92" y="178.92" width="161.96" height="41.89" rx="4.41" ry="4.41"/>
        <g>
          <path class="cls-2" d="M698.93,201.04c1.56-1.12,2.71-2.24,3.47-3.35.75-1.11,1.13-2.37,1.13-3.78v-1.03h1.31v1.03c0,1.62-.42,3.08-1.27,4.38-.85,1.3-2.15,2.56-3.91,3.77l-.73-1.03ZM699.61,193.49v-1.2h9.2v1.2h-9.2ZM702.17,208.52v-5.25h1.33v4.02h10.56v1.23h-11.89ZM708.73,201.79l-5.53-4.51.79-.97,5.51,4.43-.77,1.05ZM708.21,197.23v-1.18h4.41v1.18h-4.41ZM711.93,204.37v-13.11h1.33v13.11h-1.33Z"/>
          <path class="cls-2" d="M716.9,200.73v-4.94h6.45v-2.41h-6.45v-1.18h7.76v4.77h-6.45v2.56h1.74c1.02,0,2.14-.05,3.34-.15,1.2-.1,2.35-.23,3.43-.39l.15,1.14c-1.05.17-2.2.32-3.45.43-1.25.11-2.48.17-3.69.17h-2.82ZM728.68,208.69v-4.9h-9.59v-1.23h10.94v6.13h-1.35ZM728.68,201.34v-10.06h1.35v10.06h-1.35ZM729.46,194.76v-1.2h3.42v1.2h-3.42ZM729.46,198.2v-1.2h3.42v1.2h-3.42Z"/>
          <path class="cls-2" d="M735.03,205.29c1.46-.95,2.72-2.02,3.78-3.21,1.06-1.19,1.87-2.45,2.44-3.77.57-1.32.85-2.65.85-3.98v-.9l.49.52h-7.29v-1.21h8.15v1.33c0,2.39-.67,4.64-2,6.73-1.33,2.09-3.21,3.94-5.63,5.53l-.79-1.05ZM747.37,208.52v-17.26h1.33v17.26h-1.33Z"/>
          <path class="cls-2" d="M752.07,202.18l-.08-1.1h3.14c1.1,0,2.43-.05,3.99-.15,1.56-.1,3.01-.23,4.33-.39l.13,1.07c-1.26.19-2.66.33-4.22.43-1.55.1-2.99.15-4.31.15h-2.99ZM752.53,193.92v-1.1h10.11v1.1h-10.11ZM757.62,199.72c-1.25,0-2.27-.21-3.06-.62s-1.19-1-1.19-1.76v-.21c0-.76.4-1.34,1.19-1.75s1.81-.61,3.06-.61,2.23.2,3.01.61,1.18.99,1.18,1.75v.21c0,.76-.39,1.35-1.18,1.76s-1.79.62-3.01.62ZM757.62,198.65c.82,0,1.51-.12,2.06-.37.55-.24.82-.56.82-.96v-.13c0-.4-.27-.72-.82-.97-.55-.25-1.23-.37-2.06-.37s-1.55.12-2.1.37c-.56.25-.83.57-.83.97v.13c0,.4.28.72.83.96.55.24,1.26.37,2.1.37ZM765.08,208.69v-3.87h-10.11v-1.18h11.44v5.05h-1.33ZM756.91,193.45v-2.41h1.35v2.41h-1.35ZM756.93,201.38v-2.56h1.35v2.56h-1.35ZM765.08,202.43v-11.16h1.33v11.16h-1.33Z"/>
          <path class="cls-2" d="M769.77,198.71c1.61-.82,2.81-1.7,3.6-2.64.79-.93,1.19-2.01,1.19-3.22v-.99h1.33v.99c0,1.46-.45,2.75-1.36,3.88-.9,1.13-2.28,2.15-4.14,3.08l-.62-1.1ZM773.06,208.61v-4.47h9.76v-2.06h-9.85v-1.14h11.18v4.36h-9.76v2.13h10.47v1.18h-11.8ZM780,199.44l-5.68-3.37.77-1.03,5.57,3.33-.65,1.07ZM782.82,199.72v-8.45h1.33v8.45h-1.33Z"/>
        </g>
      </g>
      <g>
        <rect class="cls-3" x="660.92" y="119.28" width="161.96" height="41.89" rx="4.41" ry="4.41"/>
        <g>
          <path class="cls-2" d="M699.27,145.92v-13.22h1.31v11.98h5.61v-11.98h1.33v13.22h-8.24ZM699.91,139.04v-1.22h6.97v1.22h-6.97ZM711.59,148.76v-17.26h1.33v17.26h-1.33Z"/>
          <path class="cls-2" d="M715.74,139.71c1.55-.91,2.7-1.88,3.47-2.93.77-1.04,1.15-2.21,1.15-3.51v-1.16h1.31v1.16c0,1.55-.43,2.93-1.29,4.15-.86,1.22-2.18,2.34-3.96,3.36l-.67-1.08ZM722.58,148.93c-.81,0-1.52-.15-2.13-.45-.61-.3-1.08-.71-1.4-1.23-.32-.52-.49-1.12-.49-1.78s.16-1.24.49-1.77c.32-.53.79-.95,1.4-1.25.61-.31,1.32-.46,2.13-.46h3.5c.82,0,1.54.15,2.14.46s1.07.72,1.39,1.25.49,1.12.49,1.77-.16,1.25-.49,1.78c-.32.52-.79.93-1.39,1.23-.6.3-1.32.45-2.14.45h-3.5ZM725.82,147.73c.96,0,1.69-.21,2.19-.63s.75-.97.75-1.65-.25-1.2-.76-1.63c-.5-.42-1.23-.64-2.18-.64h-2.97c-.95,0-1.67.21-2.18.64-.5.42-.76.97-.76,1.63s.25,1.24.75,1.65c.5.42,1.23.63,2.19.63h2.97ZM725.54,140.44l-5.44-3.78.79-.99,5.38,3.7-.73,1.07ZM728.32,140.95v-9.42h1.35v9.42h-1.35ZM729.11,136.59v-1.21h3.42v1.21h-3.42Z"/>
          <path class="cls-2" d="M734.49,145.88v-12.99h6.36v1.23h-5.01v10.55h.92c1.71,0,3.41-.13,5.12-.39l.15,1.2c-.85.15-1.71.26-2.58.32-.87.06-1.84.09-2.9.09h-2.06ZM743.32,148.44v-16.66h1.29v16.66h-1.29ZM743.88,139.49v-1.23h3.96v1.23h-3.96ZM747.28,148.76v-17.26h1.31v17.26h-1.31Z"/>
          <path class="cls-2" d="M751.51,140.85v-1.18h16.15v1.18h-16.15ZM757.69,148.95c-.91,0-1.69-.13-2.33-.39-.64-.26-1.13-.63-1.46-1.09-.33-.47-.5-1-.5-1.6s.17-1.13.5-1.59c.33-.46.82-.82,1.46-1.08.64-.26,1.42-.39,2.33-.39h3.78c.92,0,1.7.13,2.35.39.64.26,1.13.62,1.46,1.08.33.46.5.99.5,1.59s-.17,1.13-.5,1.6c-.33.47-.82.83-1.46,1.09-.64.26-1.42.39-2.35.39h-3.78ZM758.39,137.95c-1.52,0-2.71-.26-3.58-.79-.87-.53-1.3-1.3-1.3-2.31s.43-1.79,1.29-2.32c.86-.52,2.06-.79,3.59-.79h2.41c1.53,0,2.73.26,3.59.79.86.52,1.29,1.3,1.29,2.32s-.43,1.78-1.3,2.31c-.87.53-2.06.79-3.58.79h-2.41ZM761.17,147.75c1.07,0,1.88-.17,2.43-.5.55-.34.82-.8.82-1.38s-.27-1.04-.82-1.37c-.55-.33-1.36-.5-2.43-.5h-3.18c-1.07,0-1.88.17-2.43.5-.55.33-.82.79-.82,1.37s.27,1.05.82,1.38c.55.34,1.36.5,2.43.5h3.18ZM760.57,136.81c1.21,0,2.14-.17,2.79-.51.65-.34.97-.83.97-1.45s-.32-1.1-.96-1.43c-.64-.33-1.57-.5-2.8-.5h-1.96c-1.22,0-2.16.17-2.8.5-.65.33-.97.81-.97,1.43s.32,1.12.97,1.46c.65.34,1.58.5,2.8.5h1.96Z"/>
          <path class="cls-2" d="M769.44,138.95c1.61-.82,2.81-1.7,3.6-2.64.79-.93,1.19-2.01,1.19-3.22v-.99h1.33v.99c0,1.46-.45,2.75-1.36,3.88-.9,1.13-2.28,2.15-4.14,3.08l-.62-1.1ZM772.73,148.85v-4.47h9.76v-2.06h-9.85v-1.14h11.18v4.36h-9.76v2.13h10.47v1.18h-11.8ZM779.66,139.67l-5.68-3.37.77-1.03,5.57,3.33-.65,1.07ZM782.48,139.96v-8.45h1.33v8.45h-1.33Z"/>
        </g>
      </g>
      <g>
        <circle class="cls-4" cx="551.6" cy="59.64" r="59.64"/>
        <g>
          <path class="cls-2" d="M508.62,53.08c0-3.98,3.23-6.75,8.33-6.75s8.3,2.77,8.3,6.75-3.23,6.75-8.3,6.75-8.33-2.74-8.33-6.75ZM510.83,61.94h22.2v10.32h-22.2v-10.32ZM522.18,53.08c0-2.64-2.15-4.2-5.22-4.2s-5.25,1.55-5.25,4.2,2.15,4.2,5.25,4.2,5.22-1.55,5.22-4.2ZM529.95,69.65v-5.1h-16.04v5.1h16.04ZM529.95,46.05h3.08v14.43h-3.08v-14.43Z"/>
          <path class="cls-2" d="M545.49,60.88h-7.34v-2.55h10.98c3.64,0,6.87-.28,8.71-1.06v2.55c-1.68.75-5.01,1.06-8.8,1.06h-.47v4.76h-3.08v-4.76ZM539.74,51.28c0-3.33,3.27-5.16,7.87-5.16s7.87,1.83,7.87,5.16-3.23,5.19-7.87,5.19-7.87-1.83-7.87-5.19ZM563.84,69.65v2.61h-23.23v-8.05h3.08v5.44h20.15ZM542.76,51.28c0,1.83,2.05,2.77,4.85,2.77s4.85-.93,4.85-2.77-2.05-2.74-4.85-2.74-4.85.9-4.85,2.74ZM560.07,62.72v-16.67h3.08v20.8h-3.08v-1.65h-8.05v-2.49h8.05Z"/>
          <path class="cls-2" d="M594.58,65.83h-11.69v7.4h-3.17v-7.4h-11.66v-2.86h26.52v2.86ZM592.72,60.14h-22.82v-13.62h3.05v3.73h16.73v-3.73h3.05v13.62ZM589.67,57.4v-4.41h-16.73v4.41h16.73Z"/>
        </g>
      </g>
      <g>
        <rect class="cls-3" x="660.92" y="59.64" width="161.96" height="41.89" rx="4.41" ry="4.41"/>
        <g>
          <path class="cls-2" d="M689.42,80.14c2.1-.68,3.75-1.54,4.96-2.58s1.81-2.14,1.81-3.32v-.49l.5.59h-7v-1.19h7.79v.81c0,1.64-.65,3.07-1.96,4.28s-3.17,2.21-5.6,3.01l-.5-1.12ZM695.38,88.94c-.79,0-1.48-.14-2.06-.43s-1.03-.68-1.34-1.19c-.31-.5-.47-1.07-.47-1.71s.16-1.19.47-1.7.76-.91,1.34-1.21,1.27-.44,2.06-.44h3.51c.79,0,1.48.15,2.07.44s1.04.7,1.35,1.21c.31.51.47,1.08.47,1.7s-.16,1.21-.47,1.71c-.31.5-.76.9-1.35,1.19s-1.28.43-2.07.43h-3.51ZM698.63,87.79c.92,0,1.63-.2,2.11-.6s.73-.93.73-1.59-.24-1.16-.73-1.57c-.49-.41-1.19-.61-2.11-.61h-2.99c-.92,0-1.63.2-2.12.61-.49.41-.74.93-.74,1.57s.25,1.19.74,1.59,1.2.6,2.12.6h2.99ZM696.91,75.98v-1.1h5v1.1h-5ZM697.05,79.11v-1.1h4.86v1.1h-4.86ZM701.24,81.25v-9.07h1.28v9.07h-1.28Z"/>
          <path class="cls-2" d="M710.57,80.59c-.82,0-1.55-.14-2.2-.43s-1.16-.72-1.54-1.29-.57-1.27-.57-2.1v-.32c0-.83.19-1.53.57-2.1.38-.57.89-1,1.54-1.29.65-.29,1.38-.43,2.2-.43s1.53.14,2.18.43c.65.29,1.16.72,1.54,1.29.38.57.57,1.27.57,2.1v.32c0,.83-.19,1.53-.57,2.1s-.89,1-1.54,1.29-1.37.43-2.18.43ZM710.57,79.43c.89,0,1.61-.23,2.16-.7.55-.47.83-1.13.83-2v-.27c0-.85-.28-1.51-.83-1.98-.55-.47-1.27-.7-2.16-.7s-1.63.23-2.18.7c-.55.47-.83,1.13-.83,1.98v.27c0,.86.28,1.53.83,2,.55.47,1.28.7,2.18.7ZM712.44,88.94c-.79,0-1.48-.14-2.06-.43s-1.03-.68-1.34-1.19c-.31-.5-.47-1.07-.47-1.71s.16-1.19.47-1.7.76-.91,1.34-1.21,1.27-.44,2.06-.44h3.51c.79,0,1.48.15,2.06.44.58.29,1.03.7,1.34,1.21s.47,1.08.47,1.7-.16,1.21-.47,1.71c-.31.5-.76.9-1.34,1.19-.58.29-1.27.43-2.06.43h-3.51ZM715.68,87.79c.92,0,1.63-.2,2.12-.6.49-.4.74-.93.74-1.59s-.25-1.16-.74-1.57c-.49-.41-1.2-.61-2.12-.61h-2.97c-.92,0-1.63.2-2.12.61-.49.41-.74.93-.74,1.57s.25,1.19.74,1.59,1.2.6,2.12.6h2.97ZM713.99,75.47v-1.12h4.99v1.12h-4.99ZM713.99,78.59v-1.08h4.99v1.08h-4.99ZM718.31,81.25v-9.07h1.28v9.07h-1.28Z"/>
          <path class="cls-2" d="M722.86,81.56c1.52-1.07,2.66-2.14,3.42-3.21.76-1.07,1.13-2.29,1.13-3.64v-.97h1.26v.97c0,1.56-.42,2.97-1.26,4.24-.84,1.27-2.13,2.48-3.87,3.63l-.68-1.01ZM723.51,74.3v-1.15h9.07v1.15h-9.07ZM725.98,88.78v-5.06h1.28v3.87h10.17v1.19h-11.45ZM732.51,82.21l-5.44-4.34.74-.92,5.42,4.25-.72,1.01ZM735.37,84.78v-12.62h1.28v12.62h-1.28Z"/>
          <path class="cls-2" d="M744.98,80.59c0-1.84.33-3.55.98-5.14.65-1.59,1.62-3.07,2.89-4.44l.88.79c-2.33,2.6-3.49,5.53-3.49,8.78s1.16,6.18,3.49,8.78l-.88.79c-1.27-1.37-2.23-2.85-2.89-4.44-.65-1.59-.98-3.3-.98-5.14Z"/>
          <path class="cls-2" d="M757.21,88.09c-1.12,0-2.13-.25-3.03-.74-.91-.49-1.63-1.2-2.16-2.13-.53-.93-.8-2.03-.8-3.3v-2.68c0-1.26.27-2.36.8-3.29.53-.93,1.26-1.64,2.17-2.13.91-.49,1.92-.74,3.02-.74,1.42,0,2.61.39,3.58,1.18s1.64,1.88,2,3.27l-1.24.34c-.31-1.18-.83-2.07-1.56-2.67-.73-.61-1.65-.91-2.78-.91-.89,0-1.69.2-2.39.58s-1.27.97-1.67,1.73c-.41.76-.61,1.69-.61,2.78v2.41c0,1.09.2,2.02.61,2.78.41.76.97,1.34,1.67,1.73s1.51.58,2.39.58c1.14,0,2.07-.3,2.79-.9.72-.6,1.24-1.49,1.55-2.66l1.24.34c-.35,1.39-1.01,2.48-1.99,3.26s-2.17,1.17-3.59,1.17Z"/>
          <path class="cls-2" d="M765.16,87.82v-14.47h1.31v14.47h-1.31ZM765.81,74.52v-1.17h8.17v1.17h-8.17ZM765.81,80.91v-1.17h7.83v1.17h-7.83ZM765.81,87.82v-1.17h8.35v1.17h-8.35Z"/>
          <path class="cls-2" d="M782.12,88.09c-1.12,0-2.13-.25-3.04-.74s-1.63-1.2-2.17-2.13c-.53-.93-.8-2.02-.8-3.29v-2.7c0-1.26.27-2.36.8-3.29.53-.93,1.26-1.64,2.17-2.13s1.93-.74,3.04-.74,2.13.25,3.04.74c.91.49,1.64,1.2,2.17,2.13.53.93.8,2.02.8,3.29v2.7c0,1.26-.27,2.36-.8,3.29-.53.93-1.26,1.64-2.17,2.13-.91.49-1.93.74-3.04.74ZM782.12,86.89c.89,0,1.69-.2,2.4-.58s1.28-.97,1.69-1.73c.41-.76.62-1.69.62-2.78v-2.41c0-1.09-.21-2.02-.62-2.78-.41-.76-.98-1.34-1.69-1.73s-1.51-.58-2.4-.58-1.69.2-2.39.58-1.27.97-1.68,1.73c-.41.76-.62,1.69-.62,2.78v2.41c0,1.09.21,2.02.62,2.78.41.76.97,1.34,1.68,1.73s1.51.58,2.39.58Z"/>
          <path class="cls-2" d="M794.38,80.59c0,1.84-.33,3.55-.98,5.14-.65,1.59-1.62,3.07-2.89,4.44l-.88-.79c2.33-2.6,3.49-5.53,3.49-8.78s-1.16-6.18-3.49-8.78l.88-.79c1.27,1.37,2.24,2.85,2.89,4.44.65,1.59.98,3.3.98,5.14Z"/>
        </g>
      </g>
    </g>
  </g>
</svg>